<?xml version="1.0" encoding="UTF-8"?>
<svg xmlns="http://www.w3.org/2000/svg" width="64" height="64" viewBox="0 0 64 64" fill="none">
  <g id="calendar (2)">
    <path id="Vector" d="M51.2578 17.9707H49.8251C49.823 14.5845 47.069 11.8314 43.6823 11.8314H39.9154V9.00716C39.9154 8.27018 39.319 7.67383 38.582 7.67383C37.8451 7.67383 37.2487 8.27018 37.2487 9.00716V11.8314H29.7031V9.00716C29.7031 8.27018 29.1068 7.67383 28.3698 7.67383C27.6328 7.67383 27.0365 8.27018 27.0365 9.00716V11.8314H18.582V9.00716C18.582 8.27018 17.9857 7.67383 17.2487 7.67383C16.5117 7.67383 15.9154 8.27018 15.9154 9.00716V11.8314H13.0573C9.66927 11.8314 6.91406 14.5866 6.91406 17.9746V44.7025C6.91406 48.0905 9.66927 50.8457 13.0573 50.8457H14.49C14.4921 54.2319 17.2461 56.985 20.6328 56.985H51.2578C54.6458 56.985 57.401 54.2298 57.401 50.8418V24.1139C57.401 20.7259 54.6458 17.9707 51.2578 17.9707ZM9.58073 44.7025V17.9746C9.58073 16.0579 11.1406 14.498 13.0573 14.498H15.9154V16.166C15.9154 16.903 16.5117 17.4993 17.2487 17.4993C17.9857 17.4993 18.582 16.903 18.582 16.166V14.498H37.2487V16.166C37.2487 16.903 37.8451 17.4993 38.582 17.4993C39.319 17.4993 39.9154 16.903 39.9154 16.166V14.498H43.6823C45.599 14.498 47.1589 16.0579 47.1589 17.9746V39.4121H40.1263C39.3893 39.4121 38.793 40.0085 38.793 40.7454V48.179H13.0573C11.1406 48.179 9.58073 46.6191 9.58073 44.7025ZM41.4596 46.1841V42.0788H45.3763L42.0186 45.5984L41.4596 46.1841ZM54.7344 50.8418C54.7344 52.7585 53.1745 54.3184 51.2578 54.3184H20.6328C18.7174 54.3184 17.1588 52.7606 17.1567 50.8457H40.1263C40.3055 50.8457 40.4832 50.8088 40.6483 50.7385C40.8136 50.6682 40.9648 50.5652 41.0911 50.4329L49.457 41.666C49.5658 41.5518 49.6436 41.4193 49.7049 41.2802C49.7229 41.2395 49.7327 41.1981 49.7465 41.1558C49.7816 41.0483 49.8028 40.9397 49.8098 40.8271C49.8116 40.7991 49.8255 40.7737 49.8255 40.7454V20.6374H51.2578C53.1745 20.6374 54.7344 22.1973 54.7344 24.1139V50.8418ZM26.4505 36.9095C26.7018 37.1595 27.0404 37.2988 27.3932 37.2988C27.418 37.2988 27.444 37.2975 27.4701 37.2962C27.849 37.2754 28.2005 37.0931 28.4375 36.7949L34.7448 28.8626C35.2018 28.2871 35.1068 27.4473 34.5299 26.9889C33.9531 26.5319 33.1159 26.6257 32.6562 27.2038L27.2786 33.9668L23.9831 30.6751C23.4622 30.1569 22.6172 30.1556 22.0964 30.6764C21.5768 31.1986 21.5768 32.0423 22.0977 32.5632L26.4505 36.9095Z" fill="#FFFDC6"></path>
  </g>
</svg>
