<?xml version="1.0" encoding="UTF-8"?>
<svg xmlns="http://www.w3.org/2000/svg" width="64" height="64" viewBox="0 0 64 64" fill="none">
  <g id="calendars">
    <path id="Vector" d="M13.5195 57.8568H41.2148C44.0881 57.8568 46.6152 56.0061 47.5362 53.3199C50.1182 52.3876 51.9792 49.9363 51.9792 47.0365V44.2598L55.9167 40.1341C56.0256 40.0203 56.1034 39.8878 56.1646 39.7486C56.1825 39.708 56.1924 39.6667 56.2061 39.6245C56.2413 39.5169 56.2625 39.4081 56.2695 39.2952C56.2712 39.2672 56.2852 39.2417 56.2852 39.2135V16.4414C56.2852 13.0534 53.5299 10.2982 50.1419 10.2982H46.3737V7.47396C46.3737 6.73698 45.7773 6.14062 45.0404 6.14062C44.3034 6.14062 43.707 6.73698 43.707 7.47396V10.2982H36.1628V7.47396C36.1628 6.73698 35.5664 6.14062 34.8294 6.14062C34.0924 6.14062 33.4961 6.73698 33.4961 7.47396V10.2982H25.0404V7.47396C25.0404 6.73698 24.444 6.14062 23.707 6.14062C22.9701 6.14062 22.3737 6.73698 22.3737 7.47396V10.2982H19.5169C16.9294 10.2982 14.7216 11.9102 13.8178 14.1789C11.5068 14.7203 9.73185 16.3898 9.00708 18.5339C6.37166 19.4819 4.58594 21.9483 4.58594 24.819V48.9219C4.58594 53.849 8.59375 57.8568 13.5195 57.8568ZM49.7235 42.7605C49.7099 42.7736 49.6982 42.787 49.6851 42.8007L47.9193 44.651V40.5469H51.8359L49.7235 42.7605ZM16.0404 16.4414C16.0404 14.5247 17.6003 12.9648 19.5169 12.9648H22.3737V14.6328C22.3737 15.3698 22.9701 15.9661 23.707 15.9661C24.444 15.9661 25.0404 15.3698 25.0404 14.6328V12.9648H43.707V14.6328C43.707 15.3698 44.3034 15.9661 45.0404 15.9661C45.7773 15.9661 46.3737 15.3698 46.3737 14.6328V12.9648H50.1419C52.0586 12.9648 53.6185 14.5247 53.6185 16.4414V37.8802H46.5859C45.849 37.8802 45.2526 38.4766 45.2526 39.2135V46.6458H19.5169C17.6003 46.6458 16.0404 45.0859 16.0404 43.1693V16.4414ZM13.3737 17.1978V43.1693C13.3737 46.5573 16.1289 49.3125 19.5169 49.3125H46.5859C46.7651 49.3125 46.9428 49.2756 47.1079 49.2053C47.2732 49.135 47.4244 49.032 47.5508 48.8997L49.3105 47.0559C49.2996 49.272 47.4946 51.0729 45.276 51.0729H16.6836C13.7214 51.0729 11.3125 48.6641 11.3125 45.7031V20.7031C11.3125 19.2323 12.1375 17.9028 13.3737 17.1978ZM7.2526 24.819C7.2526 23.6298 7.78931 22.5306 8.64583 21.7797V45.7031C8.64583 50.1341 12.2513 53.7396 16.6836 53.7396H44.2991C43.5485 54.6314 42.4348 55.1901 41.2148 55.1901H13.5195C10.0638 55.1901 7.2526 52.3776 7.2526 48.9219V24.819ZM25.5214 25.283C26.3061 25.283 26.9421 24.6469 26.9421 23.8622C26.9421 23.0776 26.3061 22.4415 25.5214 22.4415C24.7368 22.4415 24.1007 23.0776 24.1007 23.8622C24.1007 24.6469 24.7368 25.283 25.5214 25.283ZM34.722 25.283C35.5066 25.283 36.1427 24.6469 36.1427 23.8622C36.1427 23.0776 35.5066 22.4415 34.722 22.4415C33.9373 22.4415 33.3013 23.0776 33.3013 23.8622C33.3013 24.6469 33.9373 25.283 34.722 25.283ZM43.9225 25.283C44.7072 25.283 45.3433 24.6469 45.3433 23.8622C45.3433 23.0776 44.7072 22.4415 43.9225 22.4415C43.1379 22.4415 42.5018 23.0776 42.5018 23.8622C42.5018 24.6469 43.1379 25.283 43.9225 25.283ZM25.5214 32.5698C26.3061 32.5698 26.9421 31.9338 26.9421 31.1491C26.9421 30.3644 26.3061 29.7284 25.5214 29.7284C24.7368 29.7284 24.1007 30.3644 24.1007 31.1491C24.1007 31.9338 24.7368 32.5698 25.5214 32.5698ZM34.722 32.5698C35.5066 32.5698 36.1427 31.9338 36.1427 31.1491C36.1427 30.3644 35.5066 29.7284 34.722 29.7284C33.9373 29.7284 33.3013 30.3644 33.3013 31.1491C33.3013 31.9338 33.9373 32.5698 34.722 32.5698ZM43.9225 32.5698C44.7072 32.5698 45.3433 31.9338 45.3433 31.1491C45.3433 30.3644 44.7072 29.7284 43.9225 29.7284C43.1379 29.7284 42.5018 30.3644 42.5018 31.1491C42.5018 31.9338 43.1379 32.5698 43.9225 32.5698ZM25.5214 39.8567C26.3061 39.8567 26.9421 39.2206 26.9421 38.436C26.9421 37.6513 26.3061 37.0152 25.5214 37.0152C24.7368 37.0152 24.1007 37.6513 24.1007 38.436C24.1007 39.2206 24.7368 39.8567 25.5214 39.8567ZM34.722 39.8567C35.5066 39.8567 36.1427 39.2206 36.1427 38.436C36.1427 37.6513 35.5066 37.0152 34.722 37.0152C33.9373 37.0152 33.3013 37.6513 33.3013 38.436C33.3013 39.2206 33.9373 39.8567 34.722 39.8567Z" fill="#FFFDC6"></path>
  </g>
</svg>
