<?xml version="1.0" encoding="UTF-8"?>
<svg xmlns="http://www.w3.org/2000/svg" width="64" height="64" viewBox="0 0 64 64" fill="none">
  <g id="calendar">
    <path id="Vector" d="M16.8063 52H47.1938C50.9472 52 54 48.945 54 45.1904V18.4439C54 14.6893 50.9472 11.6356 47.1938 11.6356H44.1846V9.35425C44.1846 8.60571 43.5791 8 42.8308 8C42.0825 8 41.4769 8.60571 41.4769 9.35425V11.6356H33.3538V9.35425C33.3538 8.60571 32.7483 8 32 8C31.2517 8 30.6462 8.60571 30.6462 9.35425V11.6356H22.5231V9.35425C22.5231 8.60571 21.9175 8 21.1692 8C20.4209 8 19.8154 8.60571 19.8154 9.35425V11.6356H16.8063C13.0528 11.6356 10 14.6893 10 18.4439V45.1904C10 48.945 13.0528 52 16.8063 52ZM12.7077 18.4439C12.7077 16.1837 14.5468 14.3441 16.8063 14.3441H19.8154V16.6254C19.8154 17.374 20.4209 17.9797 21.1692 17.9797C21.9175 17.9797 22.5231 17.374 22.5231 16.6254V14.3441H41.4769V16.6254C41.4769 17.374 42.0825 17.9797 42.8308 17.9797C43.5791 17.9797 44.1846 17.374 44.1846 16.6254V14.3441H47.1938C49.4532 14.3441 51.2923 16.1837 51.2923 18.4439V45.1904C51.2923 47.4519 49.4532 49.2915 47.1938 49.2915H16.8063C14.5468 49.2915 12.7077 47.4519 12.7077 45.1904V18.4439ZM22.6579 26.7641C23.4546 26.7641 24.1005 26.1181 24.1005 25.3211C24.1005 24.5241 23.4546 23.8781 22.6579 23.8781C21.8612 23.8781 21.2153 24.5241 21.2153 25.3211C21.2153 26.1181 21.8612 26.7641 22.6579 26.7641ZM32 26.7641C32.7967 26.7641 33.4426 26.1181 33.4426 25.3211C33.4426 24.5241 32.7967 23.8781 32 23.8781C31.2033 23.8781 30.5574 24.5241 30.5574 25.3211C30.5574 26.1181 31.2033 26.7641 32 26.7641ZM41.3421 26.7641C42.1388 26.7641 42.7847 26.1181 42.7847 25.3211C42.7847 24.5241 42.1388 23.8781 41.3421 23.8781C40.5454 23.8781 39.8995 24.5241 39.8995 25.3211C39.8995 26.1181 40.5454 26.7641 41.3421 26.7641ZM22.6579 34.1653C23.4546 34.1653 24.1005 33.5193 24.1005 32.7223C24.1005 31.9254 23.4546 31.2793 22.6579 31.2793C21.8612 31.2793 21.2153 31.9254 21.2153 32.7223C21.2153 33.5193 21.8612 34.1653 22.6579 34.1653ZM32 34.1653C32.7967 34.1653 33.4426 33.5193 33.4426 32.7223C33.4426 31.9254 32.7967 31.2793 32 31.2793C31.2033 31.2793 30.5574 31.9254 30.5574 32.7223C30.5574 33.5193 31.2033 34.1653 32 34.1653ZM41.3421 34.1653C42.1388 34.1653 42.7847 33.5193 42.7847 32.7223C42.7847 31.9254 42.1388 31.2793 41.3421 31.2793C40.5454 31.2793 39.8995 31.9254 39.8995 32.7223C39.8995 33.5193 40.5454 34.1653 41.3421 34.1653ZM22.6579 41.5665C23.4546 41.5665 24.1005 40.9205 24.1005 40.1235C24.1005 39.3266 23.4546 38.6806 22.6579 38.6806C21.8612 38.6806 21.2153 39.3266 21.2153 40.1235C21.2153 40.9205 21.8612 41.5665 22.6579 41.5665ZM32 41.5665C32.7967 41.5665 33.4426 40.9205 33.4426 40.1235C33.4426 39.3266 32.7967 38.6806 32 38.6806C31.2033 38.6806 30.5574 39.3266 30.5574 40.1235C30.5574 40.9205 31.2033 41.5665 32 41.5665ZM41.3421 41.5665C42.1388 41.5665 42.7847 40.9205 42.7847 40.1235C42.7847 39.3266 42.1388 38.6806 41.3421 38.6806C40.5454 38.6806 39.8995 39.3266 39.8995 40.1235C39.8995 40.9205 40.5454 41.5665 41.3421 41.5665Z" fill="#262961"></path>
  </g>
</svg>
