<?xml version="1.0" encoding="UTF-8"?>
<svg xmlns="http://www.w3.org/2000/svg" width="37" height="37" viewBox="0 0 37 37" fill="none">
  <g id="certificate" clip-path="url(#clip0_388_8833)">
    <g id="Page-1">
      <g id="008---Certificate">
        <path id="Shape" d="M33.9167 2.46667L3.08333 2.46667C1.3813 2.46871 0.00203877 3.84798 -2.27816e-09 5.55001L-1.86809e-08 27.75C0.00203875 29.452 1.3813 30.8313 3.08333 30.8333L21.5833 30.8333L21.5833 33.9167C21.5834 34.1661 21.7336 34.3909 21.964 34.4863C22.1944 34.5817 22.4596 34.529 22.636 34.3527L24.6667 32.322L26.6973 34.3527C26.8737 34.529 27.1389 34.5817 27.3693 34.4863C27.5997 34.3909 27.7499 34.1661 27.75 33.9167L27.75 30.8333L33.9167 30.8333C35.6187 30.8313 36.998 29.452 37 27.75L37 5.55001C36.998 3.84798 35.6187 2.46871 33.9167 2.46667ZM19.9245 14.5318C19.8292 14.4878 19.7607 14.4009 19.7402 14.2979C19.7197 14.195 19.7497 14.0884 19.8209 14.0113C20.3727 13.4116 20.3727 12.489 19.8209 11.8893C19.7495 11.8121 19.7194 11.7053 19.74 11.6022C19.7606 11.4991 19.8295 11.4121 19.9251 11.3683C20.6638 11.0245 21.0164 10.1725 20.7367 9.40726C20.7002 9.30874 20.7132 9.19874 20.7715 9.11138C20.8298 9.02402 20.9265 8.96987 21.0314 8.96572C21.8458 8.93151 22.4982 8.27912 22.5324 7.46476C22.5365 7.35965 22.5907 7.26287 22.6782 7.20452C22.7657 7.14618 22.8759 7.13333 22.9745 7.16999C23.7399 7.44809 24.5909 7.09564 24.9355 6.35784C24.9791 6.26233 25.066 6.19359 25.169 6.17307C25.2719 6.15255 25.3785 6.18275 25.4554 6.25424C26.0553 6.80611 26.978 6.80611 27.578 6.25424C27.655 6.1828 27.7618 6.1527 27.8648 6.17334C27.9679 6.19398 28.0548 6.26284 28.0984 6.35846C28.4424 7.09661 29.2938 7.44906 30.0588 7.16999C30.1574 7.13333 30.2676 7.14618 30.3551 7.20452C30.4426 7.26287 30.4969 7.35965 30.5009 7.46476C30.5356 8.28024 31.1895 8.93308 32.005 8.96634C32.1099 8.97029 32.2066 9.0243 32.2649 9.11157C32.3233 9.19885 32.3362 9.30881 32.2998 9.40726C32.0198 10.1727 32.3728 11.0249 33.1119 11.3683C33.2072 11.4122 33.2758 11.4992 33.2962 11.6021C33.3167 11.7051 33.2867 11.8116 33.2155 11.8887C32.6637 12.4884 32.6637 13.411 33.2155 14.0107C33.287 14.0879 33.317 14.1947 33.2964 14.2978C33.2758 14.401 33.2069 14.488 33.1113 14.5318C32.3726 14.8755 32.02 15.7275 32.2998 16.4928C32.3362 16.5913 32.3232 16.7013 32.2649 16.7886C32.2066 16.876 32.11 16.9301 32.005 16.9343C31.1883 16.9671 30.5337 17.6216 30.5009 18.4383C30.4969 18.5435 30.4426 18.6402 30.3551 18.6986C30.2676 18.7569 30.1574 18.7698 30.0588 18.7331C29.2934 18.4547 28.4422 18.8072 28.0978 19.5453C28.0558 19.6417 27.9687 19.711 27.8653 19.7303C27.7621 19.7518 27.6548 19.7217 27.578 19.6495C26.9779 19.0979 26.0554 19.0979 25.4554 19.6495C25.3785 19.7216 25.2712 19.7517 25.168 19.7303C25.0645 19.711 24.9772 19.6417 24.9349 19.5453C24.5912 18.8069 23.7396 18.4543 22.9745 18.7337C22.8759 18.7704 22.7657 18.7575 22.6782 18.6992C22.5907 18.6408 22.5365 18.5441 22.5324 18.439C22.4997 17.622 21.8452 16.9671 21.0283 16.9337C20.9234 16.9297 20.8268 16.8757 20.7684 16.7884C20.7101 16.7012 20.6971 16.5912 20.7336 16.4928C21.014 15.7282 20.6625 14.8762 19.9245 14.5318ZM26.698 26.0801L26.5167 26.2614L26.5167 20.4647C26.5992 20.4645 26.6787 20.4956 26.7393 20.5517C27.0251 20.8195 27.4021 20.9686 27.7938 20.9685C27.8985 20.9683 28.003 20.958 28.1058 20.9377C28.5965 20.8419 29.0103 20.5141 29.2158 20.0583C29.2881 19.9029 29.4675 19.8288 29.6284 19.8881C29.816 19.9546 30.0147 19.9845 30.2136 19.9763L30.2136 26.2614L28.7996 24.8474C28.5588 24.6066 28.1684 24.6066 27.9276 24.8474L26.698 26.0801ZM26.5167 32.428L25.1027 31.014C24.8618 30.7733 24.4715 30.7733 24.2307 31.014L22.8167 32.428L22.8167 19.9751C23.0156 19.9833 23.2142 19.9534 23.4019 19.8869C23.5624 19.8272 23.7418 19.9011 23.8138 20.0565C24.0199 20.5134 24.4353 20.8416 24.9275 20.9365C25.0446 20.9596 25.164 20.9698 25.2833 20.9667L25.2833 27.75C25.2834 27.9994 25.4336 28.2242 25.664 28.3196C25.8944 28.415 26.1596 28.3623 26.336 28.186L26.5167 28.0053L26.5167 32.428ZM35.7667 27.75C35.7667 28.7717 34.9384 29.6 33.9167 29.6L27.75 29.6L27.75 26.772L28.3667 26.1553L30.3974 28.186C30.5737 28.3623 30.8389 28.415 31.0693 28.3196C31.2997 28.2242 31.4499 27.9994 31.45 27.75L31.45 19.306C31.6221 19.0643 31.7204 18.7779 31.733 18.4815C31.7406 18.3105 31.8777 18.1736 32.0488 18.1664C32.5487 18.1471 33.0091 17.8894 33.287 17.4734C33.5649 17.0574 33.6266 16.5334 33.4529 16.0642C33.3941 15.9037 33.4681 15.7248 33.6231 15.6529C34.078 15.4439 34.4051 15.0296 34.5027 14.5386C34.6003 14.0477 34.4567 13.5397 34.1165 13.1726C34.0006 13.0466 34.0006 12.8528 34.1165 12.7268C34.4567 12.3598 34.6004 11.8519 34.5027 11.361C34.4051 10.8702 34.078 10.456 33.6231 10.2472C33.4676 10.1756 33.3932 9.99651 33.4523 9.83584C33.626 9.36665 33.5643 8.84265 33.2864 8.42661C33.0085 8.01058 32.5481 7.7529 32.0482 7.73362C31.8771 7.72643 31.74 7.58956 31.7324 7.41851C31.7137 6.9184 31.4564 6.45759 31.0404 6.17939C30.6243 5.9012 30.1002 5.83937 29.6308 6.01312C29.4703 6.07374 29.2902 5.99962 29.2189 5.84354C29.0099 5.38871 28.5956 5.06162 28.1047 4.96397C27.6137 4.86632 27.1058 5.00995 26.7387 5.35021C26.6129 5.46603 26.4192 5.46603 26.2934 5.35021C25.9264 5.00995 25.4185 4.86631 24.9277 4.96396C24.4369 5.06162 24.0226 5.38872 23.8138 5.84354C23.7422 5.99971 23.5621 6.07401 23.4013 6.01374C22.9319 5.83998 22.4078 5.90182 21.9917 6.18001C21.5757 6.45821 21.3184 6.91902 21.2997 7.41913C21.2921 7.59018 21.155 7.72705 20.9839 7.73424C20.484 7.75352 20.0236 8.0112 19.7457 8.42723C19.4678 8.84326 19.4061 9.36726 19.5798 9.83646C19.6387 9.99696 19.5647 10.1758 19.4096 10.2478C18.9547 10.4567 18.6277 10.8711 18.53 11.362C18.4324 11.8529 18.576 12.3609 18.9163 12.728C19.0322 12.854 19.0322 13.0478 18.9163 13.1739C18.576 13.5408 18.4323 14.0487 18.53 14.5396C18.6277 15.0304 18.9548 15.4447 19.4096 15.6535C19.5651 15.725 19.6395 15.9041 19.5804 16.0648C19.4067 16.534 19.4684 17.058 19.7463 17.474C20.0242 17.8901 20.4846 18.1477 20.9846 18.167C21.1556 18.1742 21.2928 18.3111 21.3003 18.4821C21.313 18.7783 21.4113 19.0645 21.5833 19.306L21.5833 29.6L3.08333 29.6C2.06161 29.6 1.23333 28.7717 1.23333 27.75L1.23333 5.55001C1.23333 4.52828 2.06161 3.70001 3.08333 3.70001L33.9167 3.70001C34.9384 3.70001 35.7667 4.52828 35.7667 5.55001L35.7667 27.75Z" fill="#505050"></path>
        <path id="Shape_2" d="M6.78646 24.6669C5.76473 24.6669 4.93646 23.8387 4.93646 22.8169L4.93646 10.4836C4.93646 9.46188 5.76473 8.6336 6.78646 8.6336L17.8865 8.6336C18.227 8.6336 18.5031 8.35751 18.5031 8.01694C18.5031 7.67636 18.227 7.40027 17.8865 7.40027L6.78646 7.40027C5.08443 7.40231 3.70516 8.78157 3.70312 10.4836L3.70312 22.8169C3.70516 24.519 5.08443 25.8982 6.78646 25.9003L18.5031 25.9003C18.8437 25.9003 19.1198 25.6242 19.1198 25.2836C19.1198 24.943 18.8437 24.6669 18.5031 24.6669L6.78646 24.6669Z" fill="#505050"></path>
        <path id="Shape_3" d="M7.39792 17.2664L16.0312 17.2664C16.3718 17.2664 16.6479 16.9903 16.6479 16.6497C16.6479 16.3092 16.3718 16.0331 16.0312 16.0331L7.39792 16.0331C7.05734 16.0331 6.78125 16.3092 6.78125 16.6497C6.78125 16.9903 7.05734 17.2664 7.39792 17.2664Z" fill="#505050"></path>
        <path id="Shape_4" d="M7.39792 14.7996L16.0312 14.7996C16.3718 14.7996 16.6479 14.5235 16.6479 14.183C16.6479 13.8424 16.3718 13.5663 16.0312 13.5663L7.39792 13.5663C7.05734 13.5663 6.78125 13.8424 6.78125 14.183C6.78125 14.5235 7.05734 14.7996 7.39792 14.7996Z" fill="#505050"></path>
        <path id="Shape_5" d="M7.39792 12.3328L16.0312 12.3328C16.3718 12.3328 16.6479 12.0567 16.6479 11.7162C16.6479 11.3756 16.3718 11.0995 16.0312 11.0995L7.39792 11.0995C7.05734 11.0995 6.78125 11.3756 6.78125 11.7162C6.78125 12.0567 7.05734 12.3328 7.39792 12.3328Z" fill="#505050"></path>
        <path id="Shape_6" d="M6.83279 23.0637C6.93092 23.2885 7.15297 23.4338 7.39828 23.4337C7.48317 23.4341 7.56721 23.4167 7.64494 23.3825C8.21585 23.1704 8.74054 22.8503 9.19031 22.4396C9.35727 22.273 9.50327 22.0866 9.62506 21.8846C9.86055 22.1494 10.1373 22.3743 10.4446 22.5506C10.8732 22.8309 11.4066 22.8991 11.8919 22.7356C12.078 22.6634 12.2462 22.5519 12.3853 22.4088C12.6643 22.5832 12.9717 22.7074 13.2936 22.7757L13.7598 22.8861C14.7114 23.1648 15.7001 23.2959 16.6914 23.2746C16.9112 23.2587 17.1058 23.1268 17.202 22.9286C17.2981 22.7303 17.2812 22.4959 17.1576 22.3135C17.0339 22.1311 16.8224 22.0285 16.6026 22.0444C15.7376 22.0557 14.8759 21.935 14.0472 21.6867L13.5705 21.5738C12.9951 21.4413 12.8471 21.2094 12.7861 21.046C12.6786 20.7591 12.3768 20.5945 12.0774 20.6597C11.7781 20.7249 11.5719 21 11.5935 21.3056C11.6004 21.4162 11.548 21.5221 11.4559 21.5837C11.3119 21.602 11.1662 21.5645 11.0489 21.4789C10.5502 21.1684 10.1752 20.6939 9.98828 20.137C9.88217 19.8502 9.58196 19.6845 9.28276 19.7476C8.98357 19.8106 8.77576 20.0834 8.79441 20.3886C8.80479 20.8297 8.632 21.2555 8.31711 21.5646C7.97469 21.864 7.57944 22.097 7.15161 22.2516C7.00159 22.3169 6.88369 22.4392 6.8239 22.5916C6.7641 22.7439 6.7673 22.9137 6.83279 23.0637Z" fill="#505050"></path>
        <path id="Shape_7" d="M26.5193 17.8841C29.2439 17.8841 31.4526 15.6754 31.4526 12.9508C31.4526 10.2262 29.2439 8.01746 26.5193 8.01746C23.7947 8.01746 21.5859 10.2262 21.5859 12.9508C21.589 15.6741 23.7959 17.8811 26.5193 17.8841ZM26.5193 9.25079C28.5627 9.25079 30.2193 10.9073 30.2193 12.9508C30.2193 14.9942 28.5627 16.6508 26.5193 16.6508C24.4758 16.6508 22.8193 14.9942 22.8193 12.9508C22.8213 10.9082 24.4767 9.25283 26.5193 9.25079Z" fill="#505050"></path>
      </g>
    </g>
  </g>
  <defs>
    <clipPath id="clip0_388_8833">
      <rect width="37" height="37" fill="white"></rect>
    </clipPath>
  </defs>
</svg>
