<?xml version="1.0" encoding="UTF-8"?>
<svg xmlns="http://www.w3.org/2000/svg" width="64" height="64" viewBox="0 0 64 64" fill="none">
  <g id="clock (2)">
    <path id="Vector" d="M55.418 36.1458H54.3099V35.4466C54.3099 34.7096 53.7135 34.1133 52.9766 34.1133C52.2396 34.1133 51.6432 34.7096 51.6432 35.4466V36.1458H47.6221C48.5805 33.6148 49.0911 30.957 49.0911 28.2174C49.0911 15.8372 39.0195 5.76562 26.6393 5.76562C14.2591 5.76562 4.1875 15.8372 4.1875 28.2174C4.1875 40.5977 14.2591 50.6693 26.6393 50.6693C27.3763 50.6693 27.9727 50.0729 27.9727 49.3359C27.9727 48.599 27.3763 48.0026 26.6393 48.0026C15.7292 48.0026 6.85417 39.1276 6.85417 28.2174C6.85417 17.3073 15.7292 8.43229 26.6393 8.43229C37.5495 8.43229 46.4245 17.3073 46.4245 28.2174C46.4245 30.8893 45.901 33.4805 44.8698 35.918C44.8384 35.9924 44.8407 36.0697 44.8235 36.1458H42.1914V35.4466C42.1914 34.7096 41.5951 34.1133 40.8581 34.1133C40.1211 34.1133 39.5247 34.7096 39.5247 35.4466V36.1458H38.418C36 36.1458 34.0339 38.112 34.0339 40.5299V55.4896C34.0339 57.9076 36 59.8737 38.418 59.8737H55.418C57.8359 59.8737 59.8021 57.9076 59.8021 55.4896V40.5299C59.8021 38.112 57.8359 36.1458 55.418 36.1458ZM57.1354 55.4896C57.1354 56.4362 56.3646 57.207 55.418 57.207H38.418C37.4714 57.207 36.7005 56.4362 36.7005 55.4896V40.5299C36.7005 39.5833 37.4714 38.8125 38.418 38.8125H39.5247V39.513C39.5247 40.25 40.1211 40.8464 40.8581 40.8464C41.5951 40.8464 42.1914 40.25 42.1914 39.513V38.8125H51.6432V39.513C51.6432 40.25 52.2396 40.8464 52.9766 40.8464C53.7135 40.8464 54.3099 40.25 54.3099 39.513V38.8125H55.418C56.3646 38.8125 57.1354 39.5833 57.1354 40.5299V55.4896ZM53.0286 45.0651H40.75C40.013 45.0651 39.4167 45.6615 39.4167 46.3984C39.4167 47.1354 40.013 47.7318 40.75 47.7318H53.0286C53.7656 47.7318 54.362 47.1354 54.362 46.3984C54.362 45.6615 53.7656 45.0651 53.0286 45.0651ZM49.5898 50.2057H40.75C40.013 50.2057 39.4167 50.8021 39.4167 51.5391C39.4167 52.276 40.013 52.8724 40.75 52.8724H49.5898C50.3268 52.8724 50.9232 52.276 50.9232 51.5391C50.9232 50.8021 50.3268 50.2057 49.5898 50.2057ZM26.2565 18.9583C25.5195 18.9583 24.9232 19.5547 24.9232 20.2917V28.0964C24.9232 28.4622 25.0729 28.8112 25.3385 29.0638L30.3711 33.8411C30.6289 34.0859 30.9596 34.207 31.2891 34.207C31.6419 34.207 31.9935 34.0677 32.2565 33.7917C32.763 33.2578 32.7409 32.4141 32.207 31.9062L27.5898 27.5234V20.2917C27.5898 19.5547 26.9935 18.9583 26.2565 18.9583Z" fill="#FFFDC6"></path>
  </g>
</svg>
