<?xml version="1.0" encoding="UTF-8"?>
<svg xmlns="http://www.w3.org/2000/svg" width="64" height="64" viewBox="0 0 64 64" fill="none">
  <g id="dollar">
    <g id="Group">
      <g id="Group_2">
        <path id="Vector" d="M59.9888 34.1361C59.9219 32.5852 58.4045 31.3467 55.47 30.4541C53.1939 29.7735 50.304 29.3606 47.1799 29.2937V17.3885C47.1688 17.1877 47.113 16.998 47.0126 16.8306C46.7001 15.4806 45.1939 14.3871 42.5272 13.5838C40.0167 12.8251 36.7364 12.4122 33.2887 12.4122C29.8522 12.4122 26.6053 12.8251 24.1395 13.5838C22.1199 14.2086 19.6987 15.369 19.6987 17.3662C19.6987 17.4889 19.7099 17.6117 19.7322 17.7344L19.855 22.8223C12.6025 21.4387 5.60669 26.203 4.23431 33.4443C4.0781 34.27 4 35.0956 4 35.9325C4 43.2965 9.99163 49.2881 17.3556 49.2881C20.424 49.2881 23.3919 48.2393 25.7685 46.2979C27.855 46.7888 30.3096 47.0566 32.9093 47.0789C33.4784 50.1696 40.1729 51.5866 46.41 51.5866C49.8466 51.5866 53.0934 51.1626 55.5593 50.3927C57.5788 49.7679 60 48.5963 60 46.5991V34.3481C60 34.2811 60 34.203 59.9888 34.1361ZM44.848 23.5587C44.848 23.7037 44.3124 24.4736 41.8912 25.21C39.6262 25.8906 36.4909 26.2923 33.2999 26.2923C30.5439 26.2923 27.8438 26.0022 25.7015 25.4555C25.6681 25.4443 25.6457 25.4443 25.6123 25.4332C24.5523 24.5963 23.3808 23.9269 22.1199 23.4583L22.0418 20.3118C22.8117 20.7023 23.6151 21.0147 24.4519 21.2379C26.8731 21.9408 30.0084 22.3202 33.2999 22.3202C36.7364 22.3202 40.0279 21.9073 42.5384 21.1486C43.3752 20.9032 44.1897 20.5796 44.9596 20.1779V23.1012C44.8368 23.2574 44.848 23.4025 44.848 23.5587ZM24.8089 15.7372C27.0628 15.0454 30.0753 14.6549 33.2887 14.6549C36.4798 14.6549 39.6151 15.0454 41.8801 15.7372C44.3013 16.4736 44.8368 17.2323 44.8368 17.3774C44.8368 17.5336 44.2901 18.3034 41.8689 19.0287C39.6039 19.7093 36.4798 20.0998 33.2887 20.0998C30.2092 20.0998 27.2859 19.7428 25.0656 19.0956C22.6667 18.4039 21.9972 17.6451 21.9414 17.3997C21.9414 17.3774 21.9303 17.3774 21.9303 17.3774C21.9414 17.1654 22.4547 16.4513 24.8089 15.7372ZM24.8424 44.1668C20.3013 48.2951 13.2608 47.9715 9.1325 43.4304C5.00418 38.8892 5.32775 31.8488 9.8689 27.7205C11.9107 25.8571 14.5886 24.8306 17.3556 24.8306C18.4714 24.8306 19.576 24.998 20.6471 25.3216C24.5188 26.5266 27.431 29.74 28.2566 33.7009C28.4017 34.4373 28.4798 35.1961 28.4798 35.9436C28.4909 39.0789 27.1632 42.058 24.8424 44.1668ZM27.6764 44.4122C28.5802 43.3076 29.3054 42.0691 29.8187 40.7414C30.7671 40.8195 31.749 40.8753 32.7755 40.8864V41.0873L32.8424 44.8697C31.113 44.8474 29.3835 44.6912 27.6764 44.4122ZM30.6555 34.6159C31.3027 34.6605 31.9833 34.6828 32.675 34.694L32.742 38.6438C31.9609 38.6326 31.1911 38.5991 30.4547 38.5433C30.622 37.6842 30.7113 36.8027 30.7113 35.9325C30.7113 35.4973 30.689 35.0622 30.6555 34.6159ZM33.4003 32.4736C33.3668 32.4736 33.3222 32.4736 33.2887 32.4736C32.2176 32.4736 31.1799 32.429 30.2204 32.362C29.7964 30.8669 29.1269 29.461 28.2232 28.2114C29.8968 28.4234 31.5816 28.535 33.2775 28.535C36.7252 28.535 40.0167 28.1221 42.5272 27.3634C43.364 27.1179 44.1674 26.7944 44.9372 26.4039V29.3272C40.1506 29.461 35.2301 30.4652 33.4003 32.4736ZM34.8731 34.2477C34.8731 34.2365 34.8731 34.2253 34.8842 34.203C34.9847 33.9018 35.7768 33.1654 38.0865 32.5182C40.251 31.9046 43.0739 31.5698 46.0418 31.5698H46.2315C49.4226 31.5698 52.5467 31.938 54.8229 32.6298C57.1994 33.3439 57.7573 34.0803 57.7685 34.2477V34.2588C57.7573 34.4262 57.1994 35.1961 54.7225 35.9325C52.4351 36.6131 49.4226 36.9813 46.2427 36.9813C43.1632 36.9813 40.2399 36.6242 38.0195 35.9882C35.6206 35.2965 34.9623 34.5266 34.8954 34.2923C34.8731 34.2477 34.8731 34.2477 34.8731 34.2477ZM54.9121 48.2728C52.6583 48.9757 49.6346 49.3662 46.4212 49.3662C43.1967 49.3662 40.1841 48.9868 37.9526 48.3062C35.5983 47.581 35.1074 46.8334 35.1074 46.6661C35.1074 46.6549 35.1074 46.6549 35.1074 46.6438L35.0516 43.408C35.9442 43.8432 36.8703 44.1779 37.8298 44.4234C40.1729 45.0371 43.152 45.3829 46.2092 45.3829C49.6569 45.3829 52.9261 44.9701 55.4254 44.2114C56.2399 43.9659 57.0209 43.6424 57.7685 43.263V46.6103H57.7796C57.7796 46.7665 57.2664 47.5364 54.9121 48.2728ZM57.7908 40.0608H57.7796C57.7796 40.1723 57.7127 40.3062 57.7127 40.429C57.7127 40.5852 57.1883 41.3439 54.7782 42.0803C52.4909 42.7721 49.4449 43.1514 46.2204 43.1514C40.0391 43.1514 35.8773 41.7567 35.007 40.6744L34.9958 39.7372L34.9512 37.1709C35.7322 37.5615 36.5467 37.8739 37.3835 38.1082C39.8047 38.8111 42.94 39.1905 46.2315 39.1905C49.6234 39.1905 52.8591 38.7888 55.3473 38.0524C56.1953 37.8181 57.0098 37.4945 57.7908 37.0928V40.0608Z" fill="#FFFDC6"></path>
      </g>
    </g>
    <g id="Group_3">
      <g id="Group_4">
        <path id="Vector_2" d="M21.4084 37.5154C20.8952 35.6967 19.2327 34.4471 17.347 34.4471C16.2536 34.4471 15.361 33.5656 15.361 32.4722C15.3721 31.3676 16.2536 30.4861 17.347 30.4861C18.4405 30.4861 19.3331 31.3787 19.3331 32.4722C19.3331 33.0859 19.8352 33.5879 20.4489 33.5879C21.0625 33.5879 21.5646 33.0859 21.5646 32.4722C21.5646 30.5866 20.315 28.9241 18.4963 28.4108V27.9087C18.4963 27.2951 17.9942 26.793 17.3805 26.793C16.7668 26.793 16.2648 27.2951 16.2648 27.9087V28.3885C14.0221 28.991 12.6832 31.3006 13.2857 33.5433C13.7766 35.3843 15.4391 36.6674 17.347 36.6674C18.4405 36.6674 19.3331 37.5489 19.3331 38.6423C19.3331 39.7358 18.4516 40.6284 17.3582 40.6284C16.2648 40.6284 15.3721 39.7469 15.3721 38.6535C15.3721 38.0398 14.8701 37.5377 14.2564 37.5377C13.6427 37.5377 13.1406 38.0398 13.1406 38.6535C13.1518 40.5615 14.4237 42.2239 16.2648 42.726V43.6967C16.2648 44.3104 16.7668 44.8125 17.3805 44.8125C17.9942 44.8125 18.4963 44.3104 18.4963 43.6967V42.7149C20.739 42.0789 22.0444 39.7581 21.4084 37.5154Z" fill="#FFFDC6"></path>
      </g>
    </g>
  </g>
</svg>
