<?xml version="1.0" encoding="UTF-8"?>
<svg xmlns="http://www.w3.org/2000/svg" width="37" height="37" viewBox="0 0 37 37" fill="none">
  <g id="knowledge">
    <path id="Vector" d="M34.1094 13.9164V12.7601C34.1098 12.5206 34.0618 12.2835 33.9684 12.063C33.8751 11.8425 33.7382 11.6431 33.5659 11.4767C33.3919 11.3118 33.1867 11.1834 32.9623 11.099C32.7379 11.0146 32.4989 10.9759 32.2594 10.9853C30.1265 11.043 28.0008 11.2594 25.9 11.6328L25.1369 11.7831C24.973 10.1607 24.2217 8.65423 23.0244 7.5473C21.827 6.44038 20.2663 5.80938 18.6361 5.77314C17.0059 5.73689 15.4187 6.29791 14.1734 7.35053C12.928 8.40315 12.1105 9.87476 11.8747 11.4882C11.8747 11.5923 11.8747 11.6906 11.8747 11.7889C9.52347 11.321 7.137 11.0522 4.74062 10.9853C4.50066 10.9783 4.26173 11.0195 4.03793 11.1064C3.81413 11.1932 3.61 11.3241 3.43757 11.4911C3.26514 11.6581 3.12791 11.858 3.03397 12.079C2.94004 12.2999 2.8913 12.5374 2.89062 12.7775V13.9337C2.23771 14.067 1.6509 14.4217 1.22949 14.938C0.808094 15.4542 0.577989 16.1001 0.578125 16.7665V32.954C0.578125 33.7207 0.882672 34.4559 1.42477 34.998C1.69319 35.2664 2.01185 35.4793 2.36256 35.6246C2.71326 35.7699 3.08915 35.8446 3.46875 35.8446H33.5312C34.2979 35.8446 35.0331 35.5401 35.5752 34.998C36.1173 34.4559 36.4219 33.7207 36.4219 32.954V16.7665C36.426 16.0972 36.1978 15.4471 35.776 14.9273C35.3543 14.4075 34.7652 14.0502 34.1094 13.9164ZM13.0309 11.6501C13.2148 10.4485 13.7876 9.34037 14.6617 8.49557C15.5357 7.65077 16.6627 7.11594 17.8698 6.97308C18.0791 6.95005 18.2895 6.93847 18.5 6.93839C19.8584 6.93514 21.1692 7.43805 22.1769 8.34901C22.7834 8.89105 23.2628 9.56029 23.5809 10.309C23.899 11.0577 24.0478 11.8673 24.0169 12.6802C23.986 13.493 23.776 14.289 23.402 15.0114C23.028 15.7337 22.4991 16.3646 21.8531 16.859C21.3632 17.2222 20.9646 17.6944 20.6886 18.2382C20.4127 18.7821 20.2671 19.3826 20.2633 19.9925C20.2618 20.2097 20.1748 20.4176 20.0212 20.5713C19.8675 20.7249 19.6596 20.8119 19.4423 20.8134H19.0781V16.7665C19.0784 16.6314 19.0313 16.5005 18.9452 16.3965L16.8408 13.8759H19.9916L18.9567 14.9107C18.862 15.0213 18.8125 15.1636 18.8181 15.3091C18.8238 15.4546 18.8841 15.5926 18.987 15.6956C19.09 15.7985 19.228 15.8589 19.3735 15.8645C19.519 15.8701 19.6613 15.8206 19.7719 15.7259L21.7953 13.7025C21.8745 13.6216 21.9283 13.5194 21.95 13.4083C21.9716 13.2972 21.9602 13.1822 21.9171 13.0776C21.874 12.9729 21.8011 12.8832 21.7076 12.8196C21.614 12.756 21.5038 12.7212 21.3906 12.7196H15.6094C15.4994 12.7195 15.3917 12.7506 15.2988 12.8095C15.206 12.8684 15.1318 12.9525 15.0851 13.0521C15.0384 13.1516 15.021 13.2624 15.035 13.3714C15.049 13.4805 15.0939 13.5833 15.1642 13.6678L17.9219 16.9746V20.8134H17.5577C17.4486 20.8134 17.3406 20.7918 17.2399 20.7499C17.1393 20.708 17.0479 20.6466 16.971 20.5692C16.8942 20.4918 16.8334 20.4 16.7922 20.299C16.751 20.1981 16.7302 20.0899 16.7309 19.9809C16.7242 19.3718 16.5767 18.7725 16.2999 18.2299C16.0231 17.6874 15.6245 17.2162 15.1353 16.8532C14.3496 16.2549 13.7395 15.456 13.3692 14.5404C12.9989 13.6249 12.882 12.6264 13.0309 11.6501ZM4.04688 12.7775C4.04759 12.6917 4.06549 12.6069 4.09952 12.5282C4.13355 12.4495 4.18302 12.3784 4.245 12.3191C4.30698 12.2598 4.38022 12.2135 4.46038 12.183C4.54054 12.1525 4.62601 12.1384 4.71172 12.1415C7.10902 12.2081 9.49601 12.4828 11.8458 12.9625C11.9121 13.903 12.1792 14.8184 12.6289 15.6471C13.0787 16.4758 13.7007 17.1985 14.4531 17.7667C14.8046 18.0219 15.0921 18.3552 15.2927 18.7405C15.4934 19.1257 15.6018 19.5524 15.6094 19.9867C15.6093 20.5066 15.8134 21.0058 16.1779 21.3767C16.5423 21.7476 17.0378 21.9605 17.5577 21.9696H19.4423C19.704 21.9689 19.9629 21.9165 20.2043 21.8155C20.4457 21.7145 20.6648 21.5668 20.849 21.381C21.0332 21.1952 21.1789 20.9748 21.2778 20.7326C21.3767 20.4904 21.4268 20.231 21.4253 19.9693C21.4347 19.5386 21.544 19.1159 21.7447 18.7347C21.9453 18.3534 22.2318 18.024 22.5816 17.7725C23.3304 17.2009 23.9488 16.4763 24.3954 15.6468C24.842 14.8174 25.1066 13.9022 25.1716 12.9625L26.1313 12.7717C28.1652 12.4099 30.2232 12.1993 32.2883 12.1415C32.375 12.1371 32.4617 12.1513 32.5425 12.1832C32.6233 12.2151 32.6963 12.264 32.7566 12.3265C32.8175 12.3858 32.8659 12.4569 32.8987 12.5354C32.9315 12.6139 32.948 12.6982 32.9473 12.7832V31.1618C32.9475 31.3256 32.8845 31.4831 32.7714 31.6016C32.6583 31.72 32.5039 31.7903 32.3403 31.7978C27.8027 31.8584 23.3121 32.7256 19.0781 34.3589V24.2821H19.6562C19.8096 24.2821 19.9566 24.2212 20.065 24.1128C20.1735 24.0044 20.2344 23.8573 20.2344 23.704C20.2344 23.5507 20.1735 23.4036 20.065 23.2952C19.9566 23.1868 19.8096 23.1259 19.6562 23.1259H17.3438C17.1904 23.1259 17.0434 23.1868 16.935 23.2952C16.8265 23.4036 16.7656 23.5507 16.7656 23.704C16.7656 23.8573 16.8265 24.0044 16.935 24.1128C17.0434 24.2212 17.1904 24.2821 17.3438 24.2821H17.9219V34.3646C13.689 32.7271 9.1979 31.8578 4.65969 31.7978C4.49507 31.7918 4.33919 31.7221 4.22489 31.6035C4.11058 31.4849 4.04677 31.3266 4.04688 31.1618V12.7775ZM1.73438 32.954V16.7665C1.73538 16.4087 1.84704 16.0599 2.05404 15.7681C2.26105 15.4762 2.55326 15.2555 2.89062 15.1362V31.1618C2.89326 31.6264 3.07507 32.0721 3.39817 32.406C3.72127 32.7398 4.16073 32.9362 4.625 32.954C8.25456 33.0401 11.8551 33.6237 15.3261 34.6884H3.46875C3.00877 34.6884 2.56762 34.5057 2.24236 34.1804C1.9171 33.8551 1.73438 33.414 1.73438 32.954ZM35.2656 32.954C35.2656 33.414 35.0829 33.8551 34.7576 34.1804C34.4324 34.5057 33.9912 34.6884 33.5312 34.6884H21.6681C25.1409 33.6231 28.7435 33.0396 32.375 32.954C32.8393 32.9362 33.2787 32.7398 33.6018 32.406C33.9249 32.0721 34.1067 31.6264 34.1094 31.1618V15.1189C34.4495 15.2391 34.7437 15.4625 34.951 15.7578C35.1582 16.0531 35.2682 16.4057 35.2656 16.7665V32.954Z" fill="#505050"></path>
    <path id="Vector_2" d="M6.31724 15.6086C7.08036 15.6606 7.84927 15.73 8.60083 15.8225H8.67021C8.82353 15.8317 8.97424 15.7796 9.08916 15.6777C9.20409 15.5758 9.27382 15.4324 9.28302 15.279C9.29222 15.1257 9.24013 14.975 9.13822 14.8601C9.0363 14.7452 8.89291 14.6754 8.73958 14.6662C7.97067 14.5737 7.17864 14.4986 6.39817 14.4465C6.24485 14.4366 6.09384 14.4879 5.97837 14.5893C5.8629 14.6907 5.79244 14.8338 5.78247 14.9871C5.7725 15.1404 5.82386 15.2914 5.92523 15.4069C6.0266 15.5223 6.16969 15.5928 6.32302 15.6028L6.31724 15.6086Z" fill="#505050"></path>
    <path id="Vector_3" d="M6.31724 17.9971C7.72761 18.0891 9.13236 18.2531 10.526 18.4885H10.6243C10.7002 18.4949 10.7766 18.4864 10.8492 18.4633C10.9219 18.4402 10.9892 18.403 11.0475 18.3539C11.1057 18.3048 11.1537 18.2447 11.1887 18.177C11.2237 18.1093 11.2451 18.0354 11.2515 17.9595C11.258 17.8836 11.2494 17.8071 11.2263 17.7345C11.2032 17.6619 11.1661 17.5946 11.117 17.5363C11.0678 17.4781 11.0077 17.4301 10.94 17.395C10.8724 17.36 10.7985 17.3387 10.7225 17.3322C9.29067 17.0893 7.84734 16.9195 6.39817 16.8235C6.24485 16.8135 6.09384 16.8649 5.97837 16.9662C5.8629 17.0676 5.79244 17.2107 5.78247 17.364C5.7725 17.5174 5.82386 17.6684 5.92523 17.7838C6.0266 17.8993 6.16969 17.9698 6.32302 17.9797L6.31724 17.9971Z" fill="#505050"></path>
    <path id="Vector_4" d="M5.78237 21.4309C5.77286 21.5833 5.82406 21.7334 5.9248 21.8482C6.02554 21.963 6.16763 22.0333 6.32003 22.0437C9.41221 22.2332 12.4708 22.7902 15.4313 23.7029C15.5777 23.7489 15.7364 23.7349 15.8725 23.6639C16.0085 23.5928 16.1108 23.4707 16.1568 23.3243C16.2028 23.1778 16.1888 23.0191 16.1178 22.8831C16.0467 22.747 15.9246 22.6447 15.7782 22.5987C12.7304 21.6504 9.58057 21.0682 6.39519 20.8643C6.31736 20.8596 6.2394 20.8707 6.16597 20.897C6.09255 20.9232 6.02519 20.964 5.96794 21.0169C5.91069 21.0698 5.86474 21.1338 5.83285 21.2049C5.80096 21.2761 5.78379 21.3529 5.78237 21.4309Z" fill="#505050"></path>
    <path id="Vector_5" d="M15.7811 25.4387C12.7333 24.4905 9.58355 23.9083 6.39817 23.7043C6.32225 23.6994 6.2461 23.7095 6.17407 23.734C6.10204 23.7585 6.03554 23.7969 5.97837 23.8471C5.8629 23.9485 5.79244 24.0916 5.78247 24.2449C5.7725 24.3982 5.82386 24.5492 5.92523 24.6647C6.0266 24.7802 6.16969 24.8506 6.32302 24.8606C9.41542 25.052 12.474 25.6109 15.4343 26.5256C15.5699 26.5455 15.7081 26.5166 15.8244 26.444C15.9406 26.3714 16.0273 26.2599 16.069 26.1294C16.1106 25.9988 16.1046 25.8577 16.0519 25.7312C15.9991 25.6047 15.9032 25.501 15.7811 25.4387Z" fill="#505050"></path>
    <path id="Vector_6" d="M15.7811 28.3293C12.7334 27.3811 9.58356 26.7988 6.39817 26.595C6.24485 26.585 6.09384 26.6364 5.97837 26.7377C5.8629 26.8391 5.79244 26.9822 5.78247 27.1355C5.7725 27.2888 5.82386 27.4399 5.92523 27.5553C6.0266 27.6708 6.16969 27.7413 6.32302 27.7512C9.4163 27.9655 12.473 28.5478 15.4285 29.4856C15.5818 29.5324 15.7474 29.5163 15.8889 29.441C16.0304 29.3656 16.1362 29.2371 16.1829 29.0838C16.2297 28.9305 16.2136 28.7648 16.1383 28.6234C16.0629 28.4819 15.9345 28.3761 15.7811 28.3293Z" fill="#505050"></path>
    <path id="Vector_7" d="M21.3901 23.7365C21.4475 23.7453 21.506 23.7453 21.5635 23.7365C24.5237 22.8218 27.5823 22.2629 30.6748 22.0715C30.8281 22.0616 30.9712 21.9911 31.0725 21.8756C31.1739 21.7602 31.2253 21.6092 31.2153 21.4558C31.2053 21.3025 31.1349 21.1594 31.0194 21.058C30.9039 20.9567 30.7529 20.9053 30.5996 20.9153C27.4142 21.1191 24.2644 21.7014 21.2166 22.6497C21.1407 22.661 21.0678 22.6873 21.002 22.7269C20.9362 22.7664 20.8789 22.8186 20.8332 22.8803C20.7411 23.005 20.7022 23.1612 20.7252 23.3145C20.7482 23.4678 20.8312 23.6057 20.9559 23.6979C21.0806 23.7901 21.2367 23.8289 21.3901 23.8059V23.7365Z" fill="#505050"></path>
    <path id="Vector_8" d="M21.3901 26.5545C21.4475 26.5632 21.506 26.5632 21.5635 26.5545C24.5225 25.63 27.5812 25.0614 30.6748 24.8606C30.7507 24.8557 30.8249 24.8358 30.8931 24.8022C30.9614 24.7686 31.0223 24.7219 31.0725 24.6647C31.1227 24.6075 31.1612 24.541 31.1857 24.469C31.2102 24.397 31.2202 24.3208 31.2153 24.2449C31.2104 24.169 31.1905 24.0948 31.1569 24.0265C31.1233 23.9583 31.0766 23.8973 31.0194 23.8471C30.9622 23.7969 30.8957 23.7585 30.8237 23.734C30.7517 23.7095 30.6755 23.6994 30.5996 23.7043C27.4142 23.9083 24.2644 24.4905 21.2166 25.4387C21.0633 25.4617 20.9254 25.5447 20.8332 25.6694C20.7411 25.7941 20.7022 25.9502 20.7252 26.1036C20.7482 26.2569 20.8312 26.3948 20.9559 26.487C21.0806 26.5791 21.2367 26.618 21.3901 26.595V26.5545Z" fill="#505050"></path>
    <path id="Vector_9" d="M21.3901 29.4846C21.4475 29.4933 21.506 29.4933 21.5635 29.4846C24.5237 28.5698 27.5823 28.0109 30.6748 27.8196C30.8281 27.8096 30.9712 27.7391 31.0725 27.6237C31.1739 27.5082 31.2253 27.3572 31.2153 27.2039C31.2053 27.0505 31.1349 26.9075 31.0194 26.8061C30.9039 26.7047 30.7529 26.6534 30.5996 26.6633C27.417 26.8446 24.2673 27.4036 21.2166 28.3283C21.0633 28.3513 20.9254 28.4343 20.8332 28.559C20.7411 28.6837 20.7022 28.8398 20.7252 28.9932C20.7482 29.1465 20.8312 29.2844 20.9559 29.3766C21.0806 29.4687 21.2367 29.5076 21.3901 29.4846Z" fill="#505050"></path>
    <path id="Vector_10" d="M18.5 4.04688C18.6533 4.04688 18.8004 3.98597 18.9088 3.87755C19.0172 3.76913 19.0781 3.62208 19.0781 3.46875V1.15625C19.0781 1.00292 19.0172 0.855873 18.9088 0.747454C18.8004 0.639034 18.6533 0.578125 18.5 0.578125C18.3467 0.578125 18.1996 0.639034 18.0912 0.747454C17.9828 0.855873 17.9219 1.00292 17.9219 1.15625V3.46875C17.9219 3.62208 17.9828 3.76913 18.0912 3.87755C18.1996 3.98597 18.3467 4.04688 18.5 4.04688Z" fill="#505050"></path>
    <path id="Vector_11" d="M22.5893 5.74034C22.6654 5.74078 22.7408 5.7262 22.8112 5.69743C22.8817 5.66866 22.9457 5.62627 22.9998 5.57269L24.6359 3.93659C24.7306 3.826 24.7801 3.68373 24.7744 3.53823C24.7688 3.39273 24.7085 3.25471 24.6055 3.15175C24.5026 3.04879 24.3646 2.98847 24.2191 2.98285C24.0736 2.97723 23.9313 3.02672 23.8207 3.12144L22.1788 4.75175C22.0973 4.83261 22.0417 4.93592 22.0191 5.04851C21.9965 5.1611 22.008 5.27786 22.052 5.38392C22.096 5.48997 22.1707 5.58051 22.2664 5.64399C22.362 5.70747 22.4745 5.74101 22.5893 5.74034Z" fill="#505050"></path>
    <path id="Vector_12" d="M14.0037 5.57261C14.1143 5.66732 14.2566 5.71681 14.4021 5.71119C14.5476 5.70557 14.6856 5.64525 14.7885 5.54229C14.8915 5.43933 14.9518 5.30131 14.9574 5.15581C14.9631 5.01031 14.9136 4.86805 14.8189 4.75745L13.1885 3.11558C13.0779 3.02086 12.9357 2.97137 12.7902 2.97699C12.6447 2.98261 12.5067 3.04293 12.4037 3.14589C12.3007 3.24885 12.2404 3.38687 12.2348 3.53237C12.2292 3.67787 12.2787 3.82014 12.3734 3.93073L14.0037 5.57261Z" fill="#505050"></path>
  </g>
</svg>
