<?xml version="1.0" encoding="UTF-8"?>
<svg xmlns="http://www.w3.org/2000/svg" width="37" height="37" viewBox="0 0 37 37" fill="none">
  <g id="online-book" clip-path="url(#clip0_388_8705)">
    <path id="Vector" d="M35.8438 32.6122H34.6875V19.3154C34.6876 18.649 34.4575 18.003 34.0361 17.4868C33.6147 16.9706 33.0279 16.6158 32.375 16.4826C32.3327 16.0028 32.1435 15.5477 31.8331 15.1794C31.5227 14.8111 31.1063 14.5474 30.6406 14.4244V13.6497C30.6401 13.4443 30.5979 13.2411 30.5164 13.0526C30.4349 12.864 30.3159 12.694 30.1667 12.5528C30.0174 12.4117 29.841 12.3024 29.6482 12.2315C29.4554 12.1607 29.2501 12.1299 29.045 12.1408C25.4261 12.1834 21.848 12.9112 18.5 14.2857C15.152 12.9112 11.5739 12.1834 7.955 12.1408C7.75272 12.1347 7.55125 12.1691 7.36249 12.2421C7.17373 12.315 7.00151 12.4251 6.856 12.5658C6.71049 12.7064 6.59465 12.8748 6.51531 13.061C6.43597 13.2472 6.39474 13.4474 6.39406 13.6497V14.4244C5.92839 14.5474 5.51198 14.8111 5.2016 15.1794C4.89123 15.5477 4.70199 16.0028 4.65969 16.4826C4.00677 16.6158 3.41996 16.9706 2.99856 17.4868C2.57716 18.003 2.34705 18.649 2.34719 19.3154V32.6122H1.15625C1.00292 32.6122 0.855873 32.6732 0.747454 32.7816C0.639034 32.89 0.578125 33.037 0.578125 33.1904V34.3466C0.578125 34.9599 0.821763 35.5481 1.25544 35.9818C1.68912 36.4155 2.27731 36.6591 2.89063 36.6591H34.1094C34.7227 36.6591 35.3109 36.4155 35.7446 35.9818C36.1782 35.5481 36.4219 34.9599 36.4219 34.3466V33.1904C36.4219 33.037 36.361 32.89 36.2526 32.7816C36.1441 32.6732 35.9971 32.6122 35.8438 32.6122ZM31.2188 16.6965V29.103C31.2188 29.4204 31.0927 29.7248 30.8682 29.9492C30.6438 30.1737 30.3394 30.2997 30.022 30.2997H21.8705C24.2423 29.6618 26.682 29.3104 29.1375 29.2533C29.5281 29.2399 29.8985 29.076 30.1711 28.7959C30.4437 28.5157 30.5974 28.1411 30.6002 27.7502V15.6558C30.7869 15.7582 30.9427 15.9087 31.0515 16.0917C31.1603 16.2747 31.2181 16.4835 31.2188 16.6965ZM29.0739 13.2971C29.1707 13.2975 29.2637 13.3347 29.3341 13.4011C29.3686 13.4339 29.3961 13.4734 29.415 13.5171C29.4339 13.5608 29.4437 13.6079 29.4439 13.6555V27.7502C29.444 27.8418 29.4084 27.9298 29.3447 27.9956C29.2811 28.0614 29.1943 28.0999 29.1028 28.1029C25.6771 28.1539 22.2858 28.7954 19.0781 29.9991V15.2916C22.2607 14.0233 25.6483 13.3473 29.0739 13.2971ZM7.55031 13.6497C7.5505 13.6021 7.56033 13.555 7.57921 13.5113C7.59808 13.4676 7.62562 13.4282 7.66016 13.3954C7.69363 13.3621 7.73332 13.3358 7.77697 13.318C7.82063 13.3001 7.86737 13.2911 7.91453 13.2913C11.3445 13.3462 14.7358 14.026 17.9219 15.2974V29.9991C14.7146 28.7933 11.3233 28.1499 7.89719 28.0971C7.80568 28.0941 7.71892 28.0556 7.65526 27.9898C7.59161 27.924 7.55605 27.836 7.55609 27.7444L7.55031 13.6497ZM5.78125 16.6965C5.78192 16.4835 5.83967 16.2747 5.94846 16.0917C6.05726 15.9087 6.21313 15.7582 6.39984 15.6558V27.7502C6.40402 28.1406 6.55823 28.5145 6.83052 28.7943C7.10282 29.0742 7.47233 29.2385 7.8625 29.2533C10.3141 29.3114 12.7499 29.6627 15.118 30.2997H6.97797C6.66058 30.2997 6.35619 30.1737 6.13176 29.9492C5.90733 29.7248 5.78125 29.4204 5.78125 29.103V16.6965ZM3.46875 19.3154C3.46976 18.9575 3.58141 18.6088 3.78842 18.3169C3.99542 18.025 4.28764 17.8043 4.625 17.6851V29.103C4.625 29.7271 4.8729 30.3256 5.31417 30.7668C5.75544 31.2081 6.35392 31.456 6.97797 31.456H30.022C30.6461 31.456 31.2446 31.2081 31.6858 30.7668C32.1271 30.3256 32.375 29.7271 32.375 29.103V17.6851C32.7124 17.8043 33.0046 18.025 33.2116 18.3169C33.4186 18.6088 33.5302 18.9575 33.5313 19.3154V32.6122H3.46875V19.3154ZM35.2656 34.3466C35.2656 34.6533 35.1438 34.9474 34.927 35.1642C34.7101 35.3811 34.416 35.5029 34.1094 35.5029H2.89063C2.58397 35.5029 2.28987 35.3811 2.07303 35.1642C1.85619 34.9474 1.73438 34.6533 1.73438 34.3466V33.7685H35.2656V34.3466Z" fill="#505050"></path>
    <path id="Vector_2" d="M9.15146 15.9562C9.72958 15.9967 10.3077 16.0487 10.8858 16.1181H10.9841C11.1374 16.1273 11.2881 16.0752 11.4031 15.9733C11.518 15.8714 11.5877 15.728 11.5969 15.5747C11.6061 15.4213 11.554 15.2706 11.4521 15.1557C11.3502 15.0408 11.2068 14.971 11.0535 14.9618C10.4754 14.8867 9.85099 14.8347 9.24974 14.7942C9.09641 14.7842 8.9454 14.8356 8.82993 14.9369C8.71447 15.0383 8.644 15.1814 8.63403 15.3347C8.62407 15.4881 8.67542 15.6391 8.77679 15.7545C8.87816 15.87 9.02125 15.9405 9.17458 15.9504L9.15146 15.9562Z" fill="#505050"></path>
    <path id="Vector_3" d="M9.15145 17.7903C10.2286 17.8608 11.3015 17.9863 12.3658 18.1661H12.4641C12.6174 18.1791 12.7697 18.1307 12.8873 18.0315C13.0049 17.9323 13.0783 17.7904 13.0914 17.6371C13.1044 17.4838 13.056 17.3315 12.9568 17.2139C12.8576 17.0963 12.7157 17.0228 12.5624 17.0098C11.4652 16.8286 10.3596 16.7032 9.24974 16.634C9.09641 16.6241 8.9454 16.6754 8.82993 16.7768C8.71447 16.8782 8.644 17.0213 8.63403 17.1746C8.62407 17.3279 8.67542 17.4789 8.77679 17.5944C8.87816 17.7098 9.02125 17.7803 9.17458 17.7903H9.15145Z" fill="#505050"></path>
    <path id="Vector_4" d="M8.61831 20.2751C8.60879 20.4275 8.66 20.5775 8.76074 20.6924C8.86148 20.8072 9.00357 20.8775 9.15597 20.8879C11.5107 21.0357 13.8395 21.4627 16.0935 22.1597C16.1509 22.1685 16.2094 22.1685 16.2669 22.1597C16.4202 22.1827 16.5764 22.1439 16.7011 22.0517C16.8258 21.9596 16.9087 21.8217 16.9317 21.6683C16.9547 21.515 16.9159 21.3588 16.8237 21.2341C16.7316 21.1095 16.5937 21.0265 16.4403 21.0035C14.1033 20.2997 11.6911 19.8747 9.25425 19.7374C9.17691 19.7295 9.09877 19.7372 9.02449 19.7602C8.95022 19.7831 8.88134 19.8208 8.82197 19.871C8.7626 19.9212 8.71396 19.9829 8.67897 20.0523C8.64398 20.1217 8.62335 20.1975 8.61831 20.2751Z" fill="#505050"></path>
    <path id="Vector_5" d="M16.458 23.2176C14.1177 22.493 11.6996 22.0486 9.25456 21.8937C9.10211 21.8842 8.95208 21.9354 8.83726 22.0361C8.72243 22.1369 8.65215 22.279 8.64175 22.4314C8.63223 22.5838 8.68343 22.7338 8.78418 22.8487C8.88492 22.9635 9.02701 23.0338 9.17941 23.0442C11.5341 23.1922 13.8629 23.6191 16.1169 24.316C16.1744 24.3248 16.2329 24.3248 16.2903 24.316C16.4437 24.339 16.5999 24.3002 16.7245 24.208C16.8492 24.1159 16.9322 23.978 16.9552 23.8246C16.9782 23.6713 16.9393 23.5151 16.8472 23.3904C16.755 23.2658 16.6171 23.1828 16.4638 23.1598L16.458 23.2176Z" fill="#505050"></path>
    <path id="Vector_6" d="M16.458 25.4368C14.1165 24.7218 11.6985 24.2871 9.25456 24.1417C9.10211 24.1322 8.95208 24.1834 8.83726 24.2842C8.72243 24.3849 8.65215 24.527 8.64175 24.6794C8.63223 24.8319 8.68343 24.9819 8.78418 25.0967C8.88492 25.2115 9.02701 25.2818 9.17941 25.2922C11.5341 25.4401 13.8629 25.867 16.1169 26.5641C16.1744 26.5728 16.2329 26.5728 16.2903 26.5641C16.4437 26.5871 16.5999 26.5482 16.7245 26.4561C16.8492 26.3639 16.9322 26.226 16.9552 26.0727C16.9782 25.9194 16.9393 25.7632 16.8472 25.6385C16.755 25.5138 16.6171 25.4308 16.4638 25.4078L16.458 25.4368Z" fill="#505050"></path>
    <path id="Vector_7" d="M20.7121 22.1886C20.7696 22.1973 20.828 22.1973 20.8855 22.1886C23.1395 21.4916 25.4683 21.0646 27.823 20.9168C27.9754 20.9064 28.1175 20.8361 28.2183 20.7212C28.319 20.6064 28.3702 20.4564 28.3607 20.3039C28.3593 20.226 28.3421 20.1491 28.3102 20.078C28.2783 20.0068 28.2324 19.9429 28.1751 19.89C28.1179 19.837 28.0505 19.7962 27.9771 19.77C27.9037 19.7438 27.8257 19.7327 27.7479 19.7374C25.295 19.8903 22.8691 20.3347 20.5213 21.0613C20.368 21.0843 20.2301 21.1672 20.1379 21.2919C20.0458 21.4166 20.0069 21.5728 20.0299 21.7261C20.0529 21.8795 20.1359 22.0174 20.2606 22.1095C20.3852 22.2017 20.5414 22.2405 20.6948 22.2175L20.7121 22.1886Z" fill="#505050"></path>
    <path id="Vector_8" d="M20.7121 24.3449C20.7696 24.3536 20.828 24.3536 20.8855 24.3449C23.1396 23.648 25.4684 23.221 27.823 23.073C27.9754 23.0626 28.1175 22.9923 28.2183 22.8775C28.319 22.7627 28.3702 22.6126 28.3607 22.4602C28.3593 22.3822 28.3421 22.3054 28.3102 22.2342C28.2783 22.1631 28.2324 22.0991 28.1751 22.0462C28.1179 21.9933 28.0505 21.9525 27.9771 21.9263C27.9037 21.9 27.8257 21.8889 27.7479 21.8936C25.295 22.0467 22.8691 22.4911 20.5213 23.2175C20.368 23.2405 20.2301 23.3235 20.1379 23.4482C20.0458 23.5729 20.0069 23.729 20.0299 23.8824C20.0529 24.0357 20.1359 24.1736 20.2606 24.2658C20.3852 24.3579 20.5414 24.3968 20.6948 24.3738L20.7121 24.3449Z" fill="#505050"></path>
    <path id="Vector_9" d="M20.7182 26.5929C20.7757 26.6016 20.8341 26.6016 20.8916 26.5929C23.1456 25.8959 25.4744 25.4689 27.8291 25.321C27.9815 25.3107 28.1236 25.2404 28.2244 25.1255C28.3251 25.0107 28.3763 24.8607 28.3668 24.7082C28.3654 24.6303 28.3482 24.5534 28.3163 24.4823C28.2844 24.4111 28.2385 24.3472 28.1812 24.2943C28.124 24.2413 28.0566 24.2005 27.9832 24.1743C27.9098 24.1481 27.8318 24.137 27.754 24.1417C25.3081 24.2865 22.8881 24.7213 20.5448 25.4367C20.3914 25.4597 20.2535 25.5426 20.1614 25.6673C20.0692 25.792 20.0303 25.9482 20.0533 26.1015C20.0763 26.2548 20.1593 26.3928 20.284 26.4849C20.4087 26.5771 20.5649 26.6159 20.7182 26.5929Z" fill="#505050"></path>
    <path id="Vector_10" d="M7.51562 11.1754H9.82812C9.98145 11.1754 10.1285 11.1145 10.2369 11.0061C10.3453 10.8976 10.4062 10.7506 10.4062 10.5973V9.25023C10.4076 8.89043 10.2971 8.5391 10.0899 8.24493C9.88276 7.95075 9.58923 7.72829 9.25 7.60836V6.58507L11.9325 7.48117L11.0191 10.2273C10.9929 10.3063 10.9841 10.39 10.9933 10.4727C11.0024 10.5554 11.0293 10.6351 11.0721 10.7065C11.1149 10.7778 11.1727 10.8391 11.2413 10.8861C11.31 10.9331 11.388 10.9647 11.47 10.9788L18.4075 12.1351H18.5983L25.5358 10.9788C25.6178 10.9647 25.6958 10.9331 25.7645 10.8861C25.8331 10.8391 25.8908 10.7778 25.9337 10.7065C25.9765 10.6351 26.0034 10.5554 26.0125 10.4727C26.0217 10.39 26.0129 10.3063 25.9867 10.2273L25.0733 7.48117L29.6983 5.94914C29.8097 5.91181 29.9071 5.84143 29.9775 5.74736C30.0479 5.65329 30.088 5.54 30.0924 5.42258C30.0967 5.30517 30.0653 5.1892 30.0021 5.09013C29.9389 4.99106 29.8471 4.91359 29.7387 4.86804L18.7544 0.243045C18.683 0.212833 18.6064 0.197266 18.5289 0.197266C18.4514 0.197266 18.3748 0.212833 18.3034 0.243045L7.31906 4.86804C7.21075 4.91359 7.1189 4.99106 7.05573 5.09013C6.99255 5.1892 6.96107 5.30517 6.96546 5.42258C6.96986 5.54 7.00993 5.65329 7.08033 5.74736C7.15073 5.84143 7.24812 5.91181 7.35953 5.94914L8.12266 6.20351V7.61414C7.77896 7.72887 7.47983 7.94837 7.26727 8.24181C7.05471 8.53525 6.93939 8.88789 6.9375 9.25023V10.5973C6.9375 10.7506 6.99841 10.8976 7.10683 11.0061C7.21525 11.1145 7.3623 11.1754 7.51562 11.1754ZM18.5 10.9846L12.3256 9.94976L13.2159 7.27304C13.6091 6.93773 15.2741 5.78148 18.5 5.78148C21.7259 5.78148 23.3909 6.93773 23.7841 7.26726L24.6744 9.94398L18.5 10.9846ZM18.5 1.39929L27.8483 5.33054L24.6802 6.38851C24.6498 6.40329 24.6208 6.4207 24.5934 6.44054C24.1541 6.05898 22.2578 4.62523 18.5 4.62523C14.7422 4.62523 12.8459 6.05898 12.4123 6.44054C12.3849 6.42254 12.3559 6.40706 12.3256 6.39429L9.1575 5.33054L18.5 1.39929ZM8.09375 9.25023C8.08664 9.17253 8.09671 9.09422 8.12325 9.02085C8.14979 8.94748 8.19215 8.88085 8.24732 8.82567C8.30249 8.7705 8.36912 8.72815 8.44249 8.70161C8.51587 8.67507 8.59418 8.665 8.67188 8.6721C8.7498 8.66393 8.82857 8.67326 8.90243 8.69942C8.97629 8.72558 9.04338 8.76791 9.09878 8.82332C9.15419 8.87873 9.19652 8.94581 9.22268 9.01967C9.24884 9.09353 9.25818 9.1723 9.25 9.25023V10.0191H8.09375V9.25023Z" fill="#505050"></path>
  </g>
  <defs>
    <clipPath id="clip0_388_8705">
      <rect width="37" height="37" fill="white"></rect>
    </clipPath>
  </defs>
</svg>
