<?xml version="1.0" encoding="UTF-8"?>
<svg xmlns="http://www.w3.org/2000/svg" width="52" height="52" viewBox="0 0 52 52" fill="none">
  <g id="tabler:report-money">
    <g id="Group">
      <path id="Vector" d="M18.1097 7.58417H12.8478C11.4523 7.58417 10.1139 8.13854 9.12711 9.12534C8.14031 10.1121 7.58594 11.4505 7.58594 12.8461V44.4175C7.58594 45.813 8.14031 47.1514 9.12711 48.1382C10.1139 49.125 11.4523 49.6794 12.8478 49.6794H39.1574C40.5529 49.6794 41.8913 49.125 42.8781 48.1382C43.8649 47.1514 44.4193 45.813 44.4193 44.4175V12.8461C44.4193 11.4505 43.8649 10.1121 42.8781 9.12534C41.8913 8.13854 40.5529 7.58417 39.1574 7.58417H33.8955" stroke="#FFFDC6" stroke-width="3" stroke-linecap="round" stroke-linejoin="round"></path>
      <path id="Vector_2" d="M31.2641 23.3699H24.6868C23.6401 23.3699 22.6363 23.7857 21.8962 24.5258C21.1561 25.2659 20.7403 26.2697 20.7403 27.3163C20.7403 28.363 21.1561 29.3668 21.8962 30.1069C22.6363 30.847 23.6401 31.2627 24.6868 31.2627H27.3177C28.3644 31.2627 29.3682 31.6785 30.1083 32.4186C30.8484 33.1587 31.2641 34.1625 31.2641 35.2092C31.2641 36.2558 30.8484 37.2596 30.1083 37.9997C29.3682 38.7398 28.3644 39.1556 27.3177 39.1556H20.7403M26.0022 39.1556V41.7865M26.0022 20.7389V23.3699M18.1094 7.58417C18.1094 6.18863 18.6638 4.85024 19.6506 3.86344C20.6374 2.87664 21.9757 2.32227 23.3713 2.32227H28.6332C30.0287 2.32227 31.3671 2.87664 32.3539 3.86344C33.3407 4.85024 33.8951 6.18863 33.8951 7.58417C33.8951 8.97971 33.3407 10.3181 32.3539 11.3049C31.3671 12.2917 30.0287 12.8461 28.6332 12.8461H23.3713C21.9757 12.8461 20.6374 12.2917 19.6506 11.3049C18.6638 10.3181 18.1094 8.97971 18.1094 7.58417Z" stroke="#FFFDC6" stroke-width="3" stroke-linecap="round" stroke-linejoin="round"></path>
    </g>
  </g>
</svg>
