<svg width="30" height="31" viewBox="0 0 30 31" fill="none" xmlns="http://www.w3.org/2000/svg">
<g clip-path="url(#clip0_715_1742)">
<path d="M0 15.4219C0 7.1376 6.71573 0.421875 15 0.421875C23.2843 0.421875 30 7.1376 30 15.4219C30 23.7062 23.2843 30.4219 15 30.4219C6.71573 30.4219 0 23.7062 0 15.4219Z" fill="#262961"/>
<path d="M19.2158 9.335C18.5892 8.61965 18.2439 7.70098 18.2442 6.75H15.4117V18.1167C15.3898 18.7318 15.1301 19.3144 14.6873 19.7419C14.2444 20.1693 13.653 20.4082 13.0375 20.4083C11.7358 20.4083 10.6542 19.345 10.6542 18.025C10.6542 16.4483 12.1758 15.2658 13.7433 15.7517V12.855C10.5808 12.4333 7.8125 14.89 7.8125 18.025C7.8125 21.0775 10.3425 23.25 13.0283 23.25C15.9067 23.25 18.2442 20.9125 18.2442 18.025V12.2592C19.3927 13.084 20.7718 13.5266 22.1858 13.5242V10.6917C22.1858 10.6917 20.4625 10.7742 19.2158 9.335Z" fill="#F8F8F8"/>
</g>
<defs>
<clipPath id="clip0_715_1742">
<rect width="30" height="31" fill="white"/>
</clipPath>
</defs>
</svg>
