<svg width="64" height="64" viewBox="0 0 64 64" fill="none" xmlns="http://www.w3.org/2000/svg">
<g id="alarm-clock 2">
<path id="Vector" d="M53.5052 34.5171C53.5052 29.8071 51.9661 25.4599 49.3892 21.9129C50.708 20.0931 51.2262 17.8099 50.7943 15.5965C50.4561 13.8627 49.5807 12.3715 48.3818 11.246L48.8151 10.5496C49.2044 9.92465 49.013 9.10173 48.388 8.71371C47.7656 8.32439 46.9414 8.51449 46.5521 9.14079L46.1663 9.76075C44.6806 9.08505 42.983 8.84172 41.2656 9.17595C38.856 9.64511 36.8075 11.1882 35.6606 13.3394C34.4654 13.1328 33.2441 13.0028 31.9909 13.0028C30.6038 13.0028 29.251 13.1464 27.9363 13.3984C26.7958 11.2165 24.7322 9.64934 22.2995 9.17595C20.6186 8.84962 18.922 9.06169 17.397 9.75562L17.0143 9.14079C16.625 8.51449 15.8008 8.32439 15.1784 8.71371C14.5534 9.10173 14.362 9.92465 14.7513 10.5496L15.189 11.2531C13.9559 12.4108 13.1012 13.9049 12.7721 15.5965C12.3229 17.8986 12.8906 20.2814 14.3294 22.1343C14.3462 22.1558 14.3723 22.1631 14.3901 22.1834C11.9326 25.6797 10.4766 29.9282 10.4766 34.5171C10.4766 40.75 13.1568 46.3552 17.4061 50.2883L14.9935 53.9689C14.5898 54.5848 14.7617 55.4103 15.3776 55.814C15.6029 55.9624 15.8555 56.0327 16.1068 56.0327C16.5417 56.0327 16.9674 55.8205 17.2227 55.4299L19.48 51.9862C23.0098 54.5219 27.3228 56.0327 31.9909 56.0327C36.9256 56.0327 41.4636 54.3451 45.0974 51.5404L47.6458 55.4299C47.9023 55.8205 48.3281 56.0327 48.763 56.0327C49.013 56.0327 49.2669 55.9624 49.4922 55.8153C50.1081 55.4116 50.2799 54.5848 49.8776 53.9689L47.1336 49.781C51.0648 45.8803 53.5052 40.4793 53.5052 34.5171ZM41.776 11.7931C44.7214 11.2215 47.6003 13.1525 48.1771 16.1069C48.4211 17.3605 48.1954 18.6398 47.5931 19.7472C45.0923 17.1067 41.9455 15.0848 38.3909 13.975C39.1951 12.8548 40.3973 12.0615 41.776 11.7931ZM15.3893 16.1069C15.668 14.676 16.487 13.439 17.6953 12.6239C18.9062 11.8088 20.3581 11.5106 21.7891 11.7931C23.2179 12.0711 24.4558 12.9125 25.2585 14.0969C21.7224 15.266 18.6011 17.3322 16.1405 20.0203C15.4148 18.8553 15.1236 17.4676 15.3893 16.1069ZM13.1432 34.5171C13.1432 24.1239 21.5977 15.6694 31.9909 15.6694C42.3841 15.6694 50.8385 24.1239 50.8385 34.5171C50.8385 44.9103 42.3841 53.3661 31.9909 53.3661C21.5977 53.3661 13.1432 44.9103 13.1432 34.5171ZM32.9583 33.8296V25.6681C32.9583 24.9312 32.362 24.3348 31.625 24.3348C30.888 24.3348 30.2917 24.9312 30.2917 25.6681V34.4025C30.2917 34.7684 30.4414 35.1174 30.707 35.37L36.5651 40.9312C36.8229 41.1759 37.1536 41.297 37.4831 41.297C37.8359 41.297 38.1875 41.1577 38.4505 40.8817C38.957 40.3478 38.9349 39.5041 38.401 38.9963L32.9583 33.8296Z" fill="#262961"/>
<path id="Polygon 4" d="M56 46.2679C57.3333 47.0378 57.3333 48.9623 56 49.7321L44 56.6603C42.6667 57.4301 41 56.4678 41 54.9282L41 41.0718C41 39.5322 42.6667 38.5699 44 39.3397L56 46.2679Z" fill="#262961"/>
</g>
</svg>
