<svg width="64" height="64" viewBox="0 0 64 64" fill="none" xmlns="http://www.w3.org/2000/svg">
<g id="alarm-clock 1">
<path id="Vector" d="M53.5052 34.519C53.5052 29.8091 51.9661 25.4618 49.3892 21.9149C50.708 20.0951 51.2262 17.8119 50.7943 15.5985C50.4561 13.8647 49.5807 12.3735 48.3818 11.248L48.8151 10.5516C49.2044 9.9266 49.013 9.10369 48.388 8.71566C47.7656 8.32634 46.9414 8.51645 46.5521 9.14275L46.1663 9.7627C44.6806 9.087 42.983 8.84368 41.2656 9.1779C38.856 9.64706 36.8075 11.1902 35.6606 13.3414C34.4654 13.1348 33.2441 13.0047 31.9909 13.0047C30.6038 13.0047 29.251 13.1484 27.9363 13.4003C26.7958 11.2184 24.7322 9.65129 22.2995 9.1779C20.6186 8.85157 18.922 9.06365 17.397 9.75758L17.0143 9.14275C16.625 8.51645 15.8008 8.32634 15.1784 8.71566C14.5534 9.10369 14.362 9.9266 14.7513 10.5516L15.189 11.2551C13.9559 12.4128 13.1012 13.9068 12.7721 15.5985C12.3229 17.9006 12.8906 20.2834 14.3294 22.1362C14.3462 22.1578 14.3723 22.165 14.3901 22.1853C11.9326 25.6816 10.4766 29.9302 10.4766 34.519C10.4766 40.752 13.1568 46.3572 17.4061 50.2903L14.9935 53.9709C14.5898 54.5868 14.7617 55.4123 15.3776 55.8159C15.6029 55.9644 15.8555 56.0347 16.1068 56.0347C16.5417 56.0347 16.9674 55.8224 17.2227 55.4318L19.48 51.9881C23.0098 54.5238 27.3228 56.0347 31.9909 56.0347C36.9256 56.0347 41.4636 54.347 45.0974 51.5423L47.6458 55.4318C47.9023 55.8224 48.3281 56.0347 48.763 56.0347C49.013 56.0347 49.2669 55.9644 49.4922 55.8172C50.1081 55.4136 50.2799 54.5868 49.8776 53.9709L47.1336 49.783C51.0648 45.8822 53.5052 40.4813 53.5052 34.519ZM41.776 11.7951C44.7214 11.2235 47.6003 13.1545 48.1771 16.1089C48.4211 17.3625 48.1954 18.6418 47.5931 19.7491C45.0923 17.1086 41.9455 15.0868 38.3909 13.977C39.1951 12.8568 40.3973 12.0635 41.776 11.7951ZM15.3893 16.1089C15.668 14.6779 16.487 13.4409 17.6953 12.6258C18.9062 11.8107 20.3581 11.5125 21.7891 11.7951C23.2179 12.073 24.4558 12.9145 25.2585 14.0989C21.7224 15.2679 18.6011 17.3342 16.1405 20.0222C15.4148 18.8573 15.1236 17.4696 15.3893 16.1089ZM13.1432 34.519C13.1432 24.1258 21.5977 15.6714 31.9909 15.6714C42.3841 15.6714 50.8385 24.1258 50.8385 34.519C50.8385 44.9123 42.3841 53.368 31.9909 53.368C21.5977 53.368 13.1432 44.9123 13.1432 34.519ZM32.9583 33.8315V25.6701C32.9583 24.9331 32.362 24.3368 31.625 24.3368C30.888 24.3368 30.2917 24.9331 30.2917 25.6701V34.4045C30.2917 34.7704 30.4414 35.1193 30.707 35.3719L36.5651 40.9331C36.8229 41.1779 37.1536 41.299 37.4831 41.299C37.8359 41.299 38.1875 41.1597 38.4505 40.8836C38.957 40.3498 38.9349 39.506 38.401 38.9982L32.9583 33.8315Z" fill="#FFFDC6"/>
</g>
</svg>
