<svg width="37" height="37" viewBox="0 0 37 37" fill="none" xmlns="http://www.w3.org/2000/svg">
<g id="business" clip-path="url(#clip0_388_8774)">
<path id="Vector" d="M9.25 18.5C14.3586 18.5 18.5 14.3586 18.5 9.25C18.5 4.14142 14.3586 0 9.25 0C4.14142 0 0 4.14142 0 9.25C0.00572103 14.3562 4.14383 18.4943 9.25 18.5ZM6.78333 16.8743V14.8H5.55V16.3546C5.1152 16.1258 4.70238 15.8572 4.31667 15.5531V14.8123C4.31847 13.9864 4.86528 13.2607 5.6584 13.0307L6.99923 12.6486L8.87994 14.0599C9.09915 14.2246 9.40086 14.2246 9.62006 14.0599L11.5002 12.6486L12.8416 13.0313C13.6347 13.2607 14.1815 13.9864 14.1833 14.8123V15.5561C13.7976 15.8605 13.3848 16.1288 12.95 16.3576V14.8H11.7167V16.8743C10.1139 17.3973 8.38612 17.3973 6.78333 16.8743ZM11.3096 5.82491L11.0353 5.27509C10.9564 5.11641 10.813 4.99958 10.642 4.95411C10.4707 4.90834 10.2885 4.93875 10.141 5.03691L9.2235 5.64876C8.71734 5.98691 8.12205 6.16697 7.51352 6.16667H6.78333C6.77852 4.80446 7.87906 3.69609 9.24127 3.69127C10.6038 3.68645 11.7118 4.787 11.7167 6.1495C11.5399 6.10675 11.3909 5.98781 11.3096 5.82491ZM7.51352 7.4C8.36565 7.4006 9.19881 7.14827 9.90732 6.67493L10.2452 6.44971C10.4394 6.79237 10.7393 7.06276 11.1 7.22054V8.01667C11.1 9.03832 10.2717 9.86667 9.25 9.86667C8.22834 9.86667 7.4 9.03832 7.4 8.01667V7.4H7.51352ZM9.25 11.1C9.45716 11.1003 9.66372 11.0795 9.86667 11.0383V11.7167C9.86877 11.8922 9.94616 12.0584 10.0795 12.1731L9.25 12.7958L8.42045 12.1731C8.55384 12.0584 8.63123 11.8922 8.63333 11.7167V11.0383C8.83628 11.0795 9.04284 11.1003 9.25 11.1ZM9.25 1.23333C12.3668 1.23032 15.2023 3.03606 16.5181 5.86165C17.8337 8.68693 17.391 12.0193 15.3826 14.4028C15.2197 13.1897 14.3565 12.187 13.1813 11.8449L11.1 11.2506V10.4674C11.8735 9.88985 12.3306 8.98202 12.3333 8.01667V7.4C12.6739 7.4 12.95 7.12389 12.95 6.78333V6.16667C12.95 4.12336 11.2933 2.46667 9.25 2.46667C7.20669 2.46667 5.55 4.12336 5.55 6.16667V6.78333C5.55 7.12389 5.82612 7.4 6.16667 7.4V8.01667C6.16938 8.98202 6.62646 9.88985 7.4 10.4674V11.2506L5.31935 11.8449C4.14383 12.1867 3.28056 13.1897 3.11736 14.4028C1.10898 12.0193 0.666349 8.68693 1.98188 5.86165C3.29772 3.03606 6.13324 1.23032 9.25 1.23333Z" fill="#505050"/>
<path id="Vector_2" d="M3.08594 8.63281H4.31927V9.86615H3.08594V8.63281Z" fill="#505050"/>
<path id="Vector_3" d="M14.1797 8.63281H15.413V9.86615H14.1797V8.63281Z" fill="#505050"/>
<path id="Vector_4" d="M27.75 18.5C22.6414 18.5 18.5 22.6414 18.5 27.75C18.5 32.8586 22.6414 37 27.75 37C32.8586 37 37 32.8586 37 27.75C36.9943 22.6438 32.8562 18.5057 27.75 18.5ZM25.2833 35.3743V33.3H24.05V34.8546C23.6152 34.6258 23.2024 34.3572 22.8167 34.0531V33.3123C22.8185 32.4864 23.3653 31.7607 24.1584 31.5307L25.4992 31.1486L27.3799 32.5599C27.5991 32.7246 27.9009 32.7246 28.1201 32.5599L30.0002 31.1486L31.3416 31.5313C32.1347 31.7607 32.6815 32.4864 32.6833 33.3123V34.0561C32.2976 34.3605 31.8848 34.6288 31.45 34.8576V33.3H30.2167V35.3743C28.6139 35.8973 26.8861 35.8973 25.2833 35.3743ZM29.8096 24.3249L29.5353 23.7751C29.4564 23.6164 29.313 23.4996 29.142 23.4541C28.9707 23.4083 28.7885 23.4388 28.641 23.5369L27.7235 24.1488C27.2173 24.4869 26.6221 24.667 26.0135 24.6667H25.2833C25.2785 23.3045 26.3791 22.1961 27.7413 22.1913C29.1038 22.1865 30.2118 23.287 30.2167 24.6495C30.0399 24.6067 29.8909 24.4878 29.8096 24.3249ZM26.0135 25.9C26.8656 25.9006 27.6988 25.6483 28.4073 25.1749L28.7452 24.9497C28.9394 25.2924 29.2393 25.5628 29.6 25.7205V26.5167C29.6 27.5383 28.7717 28.3667 27.75 28.3667C26.7283 28.3667 25.9 27.5383 25.9 26.5167V25.9H26.0135ZM27.75 29.6C27.9572 29.6003 28.1637 29.5795 28.3667 29.5383V30.2167C28.3688 30.3922 28.4462 30.5584 28.5795 30.6731L27.75 31.2958L26.9205 30.6731C27.0538 30.5584 27.1312 30.3922 27.1333 30.2167V29.5383C27.3363 29.5795 27.5428 29.6003 27.75 29.6ZM33.8826 32.9028C33.7197 31.6897 32.8565 30.687 31.6813 30.3449L29.6 29.7506V28.9674C30.3735 28.3899 30.8306 27.482 30.8333 26.5167V25.9C31.1739 25.9 31.45 25.6239 31.45 25.2833V24.6667C31.45 22.6234 29.7933 20.9667 27.75 20.9667C25.7067 20.9667 24.05 22.6234 24.05 24.6667V25.2833C24.05 25.6239 24.3261 25.9 24.6667 25.9V26.5167C24.6694 27.482 25.1265 28.3899 25.9 28.9674V29.7506L23.8194 30.3449C22.6438 30.6867 21.7806 31.6897 21.6174 32.9028C18.8803 29.6518 19.1558 24.8299 22.2455 21.9118C25.3351 18.9938 30.1649 18.9938 33.2545 21.9118C36.3442 24.8299 36.6197 29.6518 33.8826 32.9028Z" fill="#505050"/>
<path id="Vector_5" d="M21.5859 27.1328H22.8193V28.3661H21.5859V27.1328Z" fill="#505050"/>
<path id="Vector_6" d="M32.6797 27.1328H33.913V28.3661H32.6797V27.1328Z" fill="#505050"/>
<path id="Vector_7" d="M15.4167 24.0497H7.4V20.9664C7.4 20.6945 7.22235 20.4548 6.96219 20.3762C6.70203 20.2973 6.4211 20.3979 6.27025 20.624L3.98665 24.0497H1.85C0.828345 24.0497 0 24.8781 0 25.8997V34.5331C0 35.5547 0.828345 36.3831 1.85 36.3831H15.4167C16.4383 36.3831 17.2667 35.5547 17.2667 34.5331V25.8997C17.2667 24.8781 16.4383 24.0497 15.4167 24.0497ZM16.0333 34.5331C16.0333 34.8736 15.7572 35.1497 15.4167 35.1497H1.85C1.50945 35.1497 1.23333 34.8736 1.23333 34.5331V25.8997C1.23333 25.5592 1.50945 25.2831 1.85 25.2831H4.31667C4.52292 25.2831 4.71533 25.1801 4.82975 25.0087L6.16667 23.0013V24.6664C6.16667 25.0069 6.44278 25.2831 6.78333 25.2831H15.4167C15.7572 25.2831 16.0333 25.5592 16.0333 25.8997V34.5331Z" fill="#505050"/>
<path id="Vector_8" d="M35.151 0.617188H21.5844C20.5627 0.617188 19.7344 1.44553 19.7344 2.46719V11.1005C19.7344 12.1222 20.5627 12.9505 21.5844 12.9505H29.601V16.0339C29.601 16.3058 29.7787 16.5454 30.0389 16.624C30.299 16.7029 30.5799 16.6023 30.7308 16.3762L33.0144 12.9505H35.151C36.1727 12.9505 37.001 12.1222 37.001 11.1005V2.46719C37.001 1.44553 36.1727 0.617188 35.151 0.617188ZM35.7677 11.1005C35.7677 11.4411 35.4916 11.7172 35.151 11.7172H32.6844C32.4781 11.7172 32.2857 11.8202 32.1713 11.9915L30.8344 13.999V12.3339C30.8344 11.9933 30.5583 11.7172 30.2177 11.7172H21.5844C21.2438 11.7172 20.9677 11.4411 20.9677 11.1005V2.46719C20.9677 2.12664 21.2438 1.85052 21.5844 1.85052H35.151C35.4916 1.85052 35.7677 2.12664 35.7677 2.46719V11.1005Z" fill="#505050"/>
<path id="Vector_9" d="M3.70312 27.1328H13.5698V28.3661H3.70312V27.1328Z" fill="#505050"/>
<path id="Vector_10" d="M3.70312 29.5996H13.5698V30.8329H3.70312V29.5996Z" fill="#505050"/>
<path id="Vector_11" d="M3.70312 32.0664H13.5698V33.2997H3.70312V32.0664Z" fill="#505050"/>
<path id="Vector_12" d="M27.75 6.16797H28.9833V7.4013H27.75V6.16797Z" fill="#505050"/>
<path id="Vector_13" d="M30.2188 6.16797H31.4521V7.4013H30.2188V6.16797Z" fill="#505050"/>
<path id="Vector_14" d="M25.2812 6.16797H26.5146V7.4013H25.2812V6.16797Z" fill="#505050"/>
</g>
<defs>
<clipPath id="clip0_388_8774">
<rect width="37" height="37" fill="white"/>
</clipPath>
</defs>
</svg>
