<svg width="64" height="64" viewBox="0 0 64 64" fill="none" xmlns="http://www.w3.org/2000/svg">
<g id="calendar (1)">
<path id="Vector" d="M49.5365 34.0592V14.9525C49.5365 11.2559 46.5286 8.2487 42.832 8.2487H39.8698V6.0026C39.8698 5.26628 39.2734 4.66927 38.5365 4.66927C37.7995 4.66927 37.2031 5.26628 37.2031 6.0026V8.2487H29.2031V5.86458C29.2031 5.12826 28.6068 4.53125 27.8698 4.53125C27.1328 4.53125 26.5365 5.12826 26.5365 5.86458V8.2487H18.5365V6.0026C18.5365 5.26628 17.9401 4.66927 17.2031 4.66927C16.4661 4.66927 15.8698 5.26628 15.8698 6.0026V8.2487H12.9062C9.20964 8.2487 6.20312 11.2559 6.20312 14.9525V41.2858C6.20312 44.9824 9.20964 47.9889 12.9062 47.9889H30.4492C31.1862 47.9889 31.7826 47.3926 31.7826 46.6556C31.7826 45.9186 31.1862 45.3223 30.4492 45.3223H12.9062C10.681 45.3223 8.86979 43.5111 8.86979 41.2858V14.9525C8.86979 12.7266 10.681 10.9154 12.9062 10.9154H15.8698V13.1615C15.8698 13.8978 16.4661 14.4948 17.2031 14.4948C17.9401 14.4948 18.5365 13.8978 18.5365 13.1615V10.9154H37.2031V13.1615C37.2031 13.8978 37.7995 14.4948 38.5365 14.4948C39.2734 14.4948 39.8698 13.8978 39.8698 13.1615V10.9154H42.832C45.0586 10.9154 46.8698 12.7266 46.8698 14.9525V34.089C40.5715 34.8161 35.6628 40.1747 35.6628 46.6647C35.6628 53.6491 41.3451 59.3314 48.3294 59.3314C55.3138 59.3314 60.9961 53.6491 60.9961 46.6647C60.9961 40.0878 55.9563 34.6693 49.5365 34.0592ZM48.3294 56.6647C42.8151 56.6647 38.3294 52.179 38.3294 46.6647C38.3294 41.1504 42.8151 36.6647 48.3294 36.6647C53.8438 36.6647 58.3294 41.1504 58.3294 46.6647C58.3294 52.179 53.8438 56.6647 48.3294 56.6647ZM52.9362 47.6712L49.5365 46.0397V42.2402C49.5365 41.5033 48.9401 40.9069 48.2031 40.9069C47.4661 40.9069 46.8698 41.5033 46.8698 42.2402V46.8783C46.8698 47.3913 47.1641 47.8587 47.6263 48.0801L51.7826 50.0749C51.9688 50.1647 52.1654 50.2064 52.3581 50.2064C52.8555 50.2064 53.332 49.9277 53.5612 49.4499C53.8802 48.7858 53.6003 47.9902 52.9362 47.6712ZM17.2031 25.9701H38.8164C39.5534 25.9701 40.1497 25.373 40.1497 24.6367C40.1497 23.9004 39.5534 23.3034 38.8164 23.3034H17.2031C16.4661 23.3034 15.8698 23.9004 15.8698 24.6367C15.8698 25.373 16.4661 25.9701 17.2031 25.9701ZM17.2031 35.0215H32.7617C33.4987 35.0215 34.0951 34.4251 34.0951 33.6881C34.0951 32.9518 33.4987 32.3548 32.7617 32.3548H17.2031C16.4661 32.3548 15.8698 32.9518 15.8698 33.6881C15.8698 34.4251 16.4661 35.0215 17.2031 35.0215Z" fill="#FFFDC6"/>
</g>
</svg>
