<svg width="64" height="65" viewBox="0 0 64 65" fill="none" xmlns="http://www.w3.org/2000/svg">
<g id="calendar (2)">
<g id="Group 427321228">
<g id="Group 427321227">
<path id="Vector 31" d="M20 23.5621L21.9701 26.0344C22.4367 26.6199 23.3392 26.5783 23.75 25.9524L27 21" stroke="#262961" stroke-width="3" stroke-linecap="round"/>
</g>
<path id="Vector" d="M17.4969 52H46.5031C50.086 52 53 49.0839 53 45.4999V19.9692C53 16.3852 50.086 13.4703 46.5031 13.4703H43.6308V11.2927C43.6308 10.5782 43.0528 10 42.3385 10C41.6242 10 41.0462 10.5782 41.0462 11.2927V13.4703H33.2923V11.2927C33.2923 10.5782 32.7143 10 32 10C31.2857 10 30.7077 10.5782 30.7077 11.2927V13.4703H22.9538V11.2927C22.9538 10.5782 22.3758 10 21.6615 10C20.9472 10 20.3692 10.5782 20.3692 11.2927V13.4703H17.4969C13.914 13.4703 11 16.3852 11 19.9692V45.4999C11 49.0839 13.914 52 17.4969 52ZM13.5846 19.9692C13.5846 17.8117 15.3401 16.0557 17.4969 16.0557H20.3692V18.2334C20.3692 18.9479 20.9472 19.5261 21.6615 19.5261C22.3758 19.5261 22.9538 18.9479 22.9538 18.2334V16.0557H41.0462V18.2334C41.0462 18.9479 41.6242 19.5261 42.3385 19.5261C43.0528 19.5261 43.6308 18.9479 43.6308 18.2334V16.0557H46.5031C48.6599 16.0557 50.4154 17.8117 50.4154 19.9692V45.4999C50.4154 47.6586 48.6599 49.4146 46.5031 49.4146H17.4969C15.3401 49.4146 13.5846 47.6586 13.5846 45.4999V19.9692ZM23.0826 27.9112C23.843 27.9112 24.4596 27.2945 24.4596 26.5338C24.4596 25.773 23.843 25.1564 23.0826 25.1564C22.322 25.1564 21.7056 25.773 21.7056 26.5338C21.7056 27.2945 22.322 27.9112 23.0826 27.9112ZM32 27.9112C32.7605 27.9112 33.377 27.2945 33.377 26.5338C33.377 25.773 32.7605 25.1564 32 25.1564C31.2395 25.1564 30.623 25.773 30.623 26.5338C30.623 27.2945 31.2395 27.9112 32 27.9112ZM40.9174 27.9112C41.678 27.9112 42.2944 27.2945 42.2944 26.5338C42.2944 25.773 41.678 25.1564 40.9174 25.1564C40.157 25.1564 39.5404 25.773 39.5404 26.5338C39.5404 27.2945 40.157 27.9112 40.9174 27.9112ZM23.0826 34.976C23.843 34.976 24.4596 34.3593 24.4596 33.5986C24.4596 32.8379 23.843 32.2211 23.0826 32.2211C22.322 32.2211 21.7056 32.8379 21.7056 33.5986C21.7056 34.3593 22.322 34.976 23.0826 34.976ZM32 34.976C32.7605 34.976 33.377 34.3593 33.377 33.5986C33.377 32.8379 32.7605 32.2211 32 32.2211C31.2395 32.2211 30.623 32.8379 30.623 33.5986C30.623 34.3593 31.2395 34.976 32 34.976ZM40.9174 34.976C41.678 34.976 42.2944 34.3593 42.2944 33.5986C42.2944 32.8379 41.678 32.2211 40.9174 32.2211C40.157 32.2211 39.5404 32.8379 39.5404 33.5986C39.5404 34.3593 40.157 34.976 40.9174 34.976ZM23.0826 42.0408C23.843 42.0408 24.4596 41.4241 24.4596 40.6633C24.4596 39.9027 23.843 39.286 23.0826 39.286C22.322 39.286 21.7056 39.9027 21.7056 40.6633C21.7056 41.4241 22.322 42.0408 23.0826 42.0408ZM32 42.0408C32.7605 42.0408 33.377 41.4241 33.377 40.6633C33.377 39.9027 32.7605 39.286 32 39.286C31.2395 39.286 30.623 39.9027 30.623 40.6633C30.623 41.4241 31.2395 42.0408 32 42.0408ZM40.9174 42.0408C41.678 42.0408 42.2944 41.4241 42.2944 40.6633C42.2944 39.9027 41.678 39.286 40.9174 39.286C40.157 39.286 39.5404 39.9027 39.5404 40.6633C39.5404 41.4241 40.157 42.0408 40.9174 42.0408Z" fill="#262961"/>
<g id="Group 427321226">
<circle id="Ellipse 257" cx="43.0047" cy="50.5008" r="6.7" fill="#FFFDC6" stroke="#262961" stroke-width="2"/>
<path id="Vector 33" d="M45.2031 50.5H43.0031" stroke="#262961" stroke-width="1.5" stroke-linecap="round"/>
<path id="Vector 32" d="M43.0078 47.2012L43.0078 48.8512L43.0078 50.5012" stroke="#262961" stroke-width="1.5" stroke-linecap="round"/>
</g>
</g>
</g>
</svg>
