<svg width="64" height="64" viewBox="0 0 64 64" fill="none" xmlns="http://www.w3.org/2000/svg">
<g id="streamline:money-cash-dollar-coin-accounting-billing-payment-cash-coin-currency-money-finance">
<g id="Group">
<path id="Vector" d="M32.0038 23.5428V18.4688M32.0038 23.5428C29.1961 23.5428 26.9297 23.5428 26.9297 26.9256C26.9297 31.9997 37.0779 31.9997 37.0779 37.0737C37.0779 40.4565 34.8114 40.4565 32.0038 40.4565M32.0038 23.5428C34.8114 23.5428 37.0779 24.8283 37.0779 26.9256M26.9297 37.0737C26.9297 39.6108 29.1961 40.4565 32.0038 40.4565M32.0038 40.4565V45.5306" stroke="#FFFDC6" stroke-width="2.64276" stroke-linecap="round" stroke-linejoin="round"/>
<path id="Vector_2" d="M32.0112 53.9872C44.1547 53.9872 53.9989 44.1429 53.9989 31.9994C53.9989 19.856 44.1547 10.0117 32.0112 10.0117C19.8677 10.0117 10.0234 19.856 10.0234 31.9994C10.0234 44.1429 19.8677 53.9872 32.0112 53.9872Z" stroke="#FFFDC6" stroke-width="2.64276" stroke-linecap="round" stroke-linejoin="round"/>
</g>
</g>
</svg>
